<svg width="19" height="19" viewBox="0 0 19 19" fill="none" xmlns="http://www.w3.org/2000/svg">
<rect width="19" height="18.9962" rx="9.49811" fill="#697890"/>
<path d="M9.49623 1.71151C12.0333 1.71151 12.3312 1.72282 13.3339 1.76805C14.2613 1.80952 14.7627 1.96409 15.0982 2.09603C15.5431 2.26944 15.8597 2.47301 16.1915 2.80476C16.5232 3.13651 16.7306 3.45317 16.9002 3.89801C17.0284 4.23353 17.1867 4.73492 17.2282 5.6623C17.2734 6.66507 17.2847 6.96289 17.2847 9.49999C17.2847 12.0371 17.2734 12.3349 17.2282 13.3377C17.1867 14.2651 17.0321 14.7665 16.9002 15.102C16.7268 15.5468 16.5232 15.8635 16.1915 16.1952C15.8597 16.527 15.5431 16.7343 15.0982 16.904C14.7627 17.0321 14.2613 17.1905 13.3339 17.2319C12.3312 17.2772 12.0333 17.2885 9.49623 17.2885C6.95913 17.2885 6.66131 17.2772 5.65853 17.2319C4.73115 17.1905 4.22976 17.0359 3.89425 16.904C3.4494 16.7305 3.13274 16.527 2.80099 16.1952C2.46925 15.8635 2.2619 15.5468 2.09226 15.102C1.96409 14.7665 1.80575 14.2651 1.76429 13.3377C1.71905 12.3349 1.70774 12.0371 1.70774 9.49999C1.70774 6.96289 1.71905 6.66507 1.76429 5.6623C1.80575 4.73492 1.96032 4.23353 2.09226 3.89801C2.26567 3.45317 2.46925 3.13651 2.80099 2.80476C3.13274 2.47301 3.4494 2.26567 3.89425 2.09603C4.22976 1.96786 4.73115 1.80952 5.65853 1.76805C6.66131 1.71905 6.9629 1.71151 9.49623 1.71151ZM9.49623 0C6.91766 0 6.59345 0.0113095 5.57937 0.0565476C4.56905 0.101786 3.87917 0.263889 3.27599 0.497619C2.6502 0.738888 2.12242 1.06686 1.59464 1.59464C1.06687 2.12242 0.742659 2.65397 0.497619 3.27599C0.263889 3.87916 0.101786 4.56904 0.0565476 5.58313C0.0113095 6.59345 0 6.91765 0 9.49622C0 12.0748 0.0113095 12.399 0.0565476 13.4131C0.101786 14.4234 0.263889 15.1133 0.497619 15.7202C0.738889 16.346 1.06687 16.8738 1.59464 17.4016C2.12242 17.9294 2.65397 18.2536 3.27599 18.4986C3.87917 18.7323 4.56905 18.8944 5.58314 18.9397C6.59722 18.9849 6.91766 18.9962 9.5 18.9962C12.0823 18.9962 12.4028 18.9849 13.4169 18.9397C14.4272 18.8944 15.1171 18.7323 15.724 18.4986C16.3498 18.2573 16.8776 17.9294 17.4054 17.4016C17.9331 16.8738 18.2573 16.3422 18.5024 15.7202C18.7361 15.1171 18.8982 14.4272 18.9435 13.4131C18.9887 12.399 19 12.0786 19 9.49622C19 6.91388 18.9887 6.59345 18.9435 5.57936C18.8982 4.56904 18.7361 3.87916 18.5024 3.27222C18.2611 2.64643 17.9331 2.11865 17.4054 1.59087C16.8776 1.06309 16.346 0.738888 15.724 0.493849C15.1208 0.260119 14.431 0.0980158 13.4169 0.0527777C12.399 0.0113095 12.0748 0 9.49623 0Z" fill="#697890"/>
<path d="M9.49634 4.62207C6.80467 4.62207 4.61816 6.80481 4.61816 9.50024C4.61816 12.1957 6.8009 14.3784 9.49634 14.3784C12.1918 14.3784 14.3745 12.1957 14.3745 9.50024C14.3745 6.80481 12.1918 4.62207 9.49634 4.62207ZM9.49634 12.6631C7.74713 12.6631 6.32967 11.2457 6.32967 9.49647C6.32967 7.74727 7.74713 6.32981 9.49634 6.32981C11.2455 6.32981 12.663 7.74727 12.663 9.49647C12.663 11.2457 11.2455 12.6631 9.49634 12.6631Z" fill="#F4F6F9"/>
<path d="M14.5667 5.56458C15.1955 5.56458 15.7052 5.05486 15.7052 4.42609C15.7052 3.79732 15.1955 3.2876 14.5667 3.2876C13.9379 3.2876 13.4282 3.79732 13.4282 4.42609C13.4282 5.05486 13.9379 5.56458 14.5667 5.56458Z" fill="#F4F6F9"/>
</svg>
