<svg width="27" height="28" viewBox="0 0 27 28" fill="none" xmlns="http://www.w3.org/2000/svg">
<rect y="0.771973" width="26.4557" height="26.4504" rx="13.2252" fill="#4F4F4F"/>
<path d="M13.2226 3.1563C16.7553 3.1563 17.17 3.17205 18.5662 3.23504C19.8575 3.29278 20.5557 3.508 21.0228 3.69172C21.6422 3.93318 22.0832 4.21663 22.5451 4.67856C23.007 5.14048 23.2957 5.58141 23.5319 6.20081C23.7104 6.66798 23.9309 7.36612 23.9886 8.65741C24.0516 10.0537 24.0673 10.4684 24.0673 14.001C24.0673 17.5337 24.0516 17.9484 23.9886 19.3447C23.9309 20.6359 23.7156 21.3341 23.5319 21.8013C23.2905 22.4207 23.007 22.8616 22.5451 23.3235C22.0832 23.7854 21.6422 24.0741 21.0228 24.3103C20.5557 24.4888 19.8575 24.7093 18.5662 24.767C17.17 24.83 16.7553 24.8458 13.2226 24.8458C9.68992 24.8458 9.27524 24.83 7.87897 24.767C6.58768 24.7093 5.88954 24.4941 5.42237 24.3103C4.80297 24.0689 4.36204 23.7854 3.90012 23.3235C3.43819 22.8616 3.14949 22.4207 2.91328 21.8013C2.73481 21.3341 2.51434 20.6359 2.4566 19.3447C2.39361 17.9484 2.37786 17.5337 2.37786 14.001C2.37786 10.4684 2.39361 10.0537 2.4566 8.65741C2.51434 7.36612 2.72956 6.66798 2.91328 6.20081C3.15474 5.58141 3.43819 5.14048 3.90012 4.67856C4.36204 4.21663 4.80297 3.92793 5.42237 3.69172C5.88954 3.51325 6.58768 3.29278 7.87897 3.23504C9.27524 3.1668 9.69517 3.1563 13.2226 3.1563ZM13.2226 0.773193C9.63218 0.773193 9.18076 0.788941 7.76874 0.85193C6.36197 0.91492 5.40137 1.14063 4.56151 1.46608C3.69015 1.80203 2.95527 2.2587 2.22039 2.99358C1.48551 3.72846 1.03408 4.46859 0.692887 5.3347C0.36744 6.17456 0.141727 7.13515 0.0787372 8.54717C0.0157474 9.95394 0 10.4054 0 13.9958C0 17.5862 0.0157474 18.0376 0.0787372 19.4496C0.141727 20.8564 0.36744 21.817 0.692887 22.6621C1.02883 23.5335 1.48551 24.2684 2.22039 25.0032C2.95527 25.7381 3.6954 26.1895 4.56151 26.5307C5.40137 26.8562 6.36197 27.0819 7.77399 27.1449C9.18601 27.2079 9.63218 27.2236 13.2278 27.2236C16.8235 27.2236 17.2697 27.2079 18.6817 27.1449C20.0885 27.0819 21.0491 26.8562 21.8942 26.5307C22.7655 26.1948 23.5004 25.7381 24.2353 25.0032C24.9702 24.2684 25.4216 23.5282 25.7628 22.6621C26.0883 21.8223 26.314 20.8617 26.377 19.4496C26.4399 18.0376 26.4557 17.5914 26.4557 13.9958C26.4557 10.4001 26.4399 9.95394 26.377 8.54192C26.314 7.13515 26.0883 6.17456 25.7628 5.32945C25.4269 4.45809 24.9702 3.72321 24.2353 2.98833C23.5004 2.25345 22.7603 1.80203 21.8942 1.46083C21.0543 1.13538 20.0937 0.909671 18.6817 0.846681C17.2644 0.788941 16.813 0.773193 13.2226 0.773193Z" fill="#4F4F4F"/>
<path d="M13.2226 7.20752C9.47468 7.20752 6.43018 10.2468 6.43018 13.9999C6.43018 17.753 9.46943 20.7923 13.2226 20.7923C16.9757 20.7923 20.015 17.753 20.015 13.9999C20.015 10.2468 16.9757 7.20752 13.2226 7.20752ZM13.2226 18.4039C10.787 18.4039 8.81329 16.4303 8.81329 13.9947C8.81329 11.5591 10.787 9.58538 13.2226 9.58538C15.6582 9.58538 17.6318 11.5591 17.6318 13.9947C17.6318 16.4303 15.6582 18.4039 13.2226 18.4039Z" fill="#D5E5FB"/>
<path d="M20.2835 8.52058C21.159 8.52058 21.8687 7.81084 21.8687 6.93534C21.8687 6.05983 21.159 5.3501 20.2835 5.3501C19.408 5.3501 18.6982 6.05983 18.6982 6.93534C18.6982 7.81084 19.408 8.52058 20.2835 8.52058Z" fill="#DDF3FF"/>
</svg>
