<svg width="100" height="25" viewBox="0 0 100 25" fill="none" xmlns="http://www.w3.org/2000/svg">
<path d="M1.97693 11.7347C1.97693 11.6616 1.95532 11.5812 1.91211 11.4935C1.8689 11.4058 1.81128 11.3108 1.73927 11.2084C1.66725 11.0915 1.61683 11.0038 1.58803 10.9453V11.2084C1.5016 11.4716 1.45839 11.8662 1.45839 12.3925C1.41518 12.524 1.37197 12.7214 1.32876 12.9845C1.28554 13.2476 1.24233 13.4449 1.19912 13.5765V14.3658L1.06949 14.6289C1.06949 14.892 1.02627 15.0674 0.939852 15.1552C0.89664 15.1552 0.853428 15.1771 0.810217 15.2209C0.767005 15.2648 0.716592 15.3233 0.658976 15.3963C0.615765 15.4694 0.579755 15.5206 0.550947 15.5498C0.507736 15.5498 0.442919 15.5279 0.356495 15.484C0.270072 15.4402 0.205255 15.4183 0.162043 15.4183C0.0900241 15.3452 0.0396106 15.2575 0.0108029 15.1552C-0.00360096 15.0528 -0.00360096 14.9067 0.0108029 14.7166C0.0252068 14.5266 0.0324087 14.4097 0.0324087 14.3658V13.8396C0.0324087 13.708 0.0540145 13.4888 0.097226 13.1818C0.140438 12.8748 0.162043 12.6556 0.162043 12.524C0.205255 12.3048 0.248467 11.9759 0.291678 11.5373C0.33489 11.0988 0.378101 10.7699 0.421313 10.5507C0.594159 9.84902 0.680582 9.32279 0.680582 8.97198C0.853428 8.27034 0.939852 7.78796 0.939852 7.52485C0.939852 7.39329 0.961457 7.21788 1.00467 6.99862C1.04788 6.77936 1.06949 6.60395 1.06949 6.47239C1.1127 6.34084 1.15591 6.1435 1.19912 5.88039C1.24233 5.61727 1.28554 5.41994 1.32876 5.28838C1.32876 5.11297 1.37197 4.98142 1.45839 4.89371V4.76215C1.45839 4.41134 1.54481 3.88511 1.71766 3.18347C1.71766 3.05191 1.73927 2.85458 1.78248 2.59146C1.82569 2.32835 1.84729 2.13101 1.84729 1.99946C2.02014 1.47323 2.10656 1.12241 2.10656 0.947001C2.2362 0.683887 2.40904 0.55233 2.6251 0.55233L2.75474 0.420773C2.76914 0.435391 2.79075 0.457317 2.81955 0.486552C2.86277 0.515787 2.88437 0.537713 2.88437 0.55233C2.89878 0.55233 2.91318 0.566948 2.92758 0.596183C2.94199 0.625418 2.94199 0.661961 2.92758 0.705814C2.92758 0.735048 2.91318 0.771592 2.88437 0.815445C2.9708 0.815445 3.01401 0.859297 3.01401 0.947001C2.92758 1.12241 2.88437 1.38552 2.88437 1.73634C2.84116 1.82405 2.79795 1.97753 2.75474 2.19679C2.71153 2.41605 2.66831 2.56954 2.6251 2.65724L2.2362 5.02527C2.2362 5.20068 2.21459 5.46379 2.17138 5.81461C2.12817 6.16543 2.10656 6.42854 2.10656 6.60395C2.02014 6.86706 1.97693 7.26174 1.97693 7.78796V8.05108C2.03454 8.05108 2.07055 8.05108 2.08496 8.05108C2.09936 8.03646 2.10656 7.99261 2.10656 7.91952C2.14978 7.91952 2.19299 7.89759 2.2362 7.85374C2.27941 7.80989 2.32262 7.78796 2.36583 7.78796C2.75474 7.13018 3.18685 6.5601 3.66218 6.07772C4.52641 5.02527 5.26101 4.19207 5.86597 3.57814L7.68086 1.73634C7.68086 1.66326 7.70966 1.60479 7.76728 1.56093C7.82489 1.50246 7.88251 1.47323 7.94013 1.47323C8.11297 1.12241 8.32903 1.07856 8.5883 1.34167C8.84757 1.42938 9.06363 1.73634 9.23647 2.26257C9.23647 2.65724 9.10684 3.05191 8.84757 3.44658C8.84757 3.49044 8.82596 3.55622 8.78275 3.64392C8.73954 3.73162 8.71793 3.7974 8.71793 3.84125C8.71793 3.88511 8.70353 3.92165 8.67472 3.95089C8.66032 3.9655 8.64591 3.97281 8.63151 3.97281H8.5883C8.53068 4.06052 8.44426 4.19938 8.32903 4.38941C8.2282 4.56482 8.13458 4.7183 8.04815 4.84986C7.96173 4.98142 7.88251 5.08374 7.81049 5.15682C7.72407 5.24453 7.61604 5.37609 7.4864 5.5515C7.35677 5.7269 7.24874 5.85846 7.16232 5.94617L6.12524 6.99862C6.09643 7.02786 6.05322 7.05709 5.9956 7.08633C5.95239 7.11556 5.91638 7.1448 5.88758 7.17403C5.87317 7.18865 5.86597 7.21788 5.86597 7.26174C5.79395 7.30559 5.73634 7.34944 5.69312 7.39329C5.64991 7.43715 5.6067 7.48831 5.56349 7.54678C5.53468 7.59063 5.50587 7.62717 5.47707 7.65641C5.43385 7.70026 5.36904 7.74411 5.28261 7.78796C5.19619 7.83182 5.13137 7.87567 5.08816 7.91952L4.69926 8.31419C4.67045 8.31419 4.60563 8.35074 4.50481 8.42382C4.41838 8.48229 4.35357 8.4896 4.31035 8.44575L4.18072 8.57731C4.18072 8.66501 4.22393 8.75272 4.31035 8.84042C4.31035 8.88427 4.33196 8.92812 4.37517 8.97198C4.41838 9.01583 4.43999 9.05968 4.43999 9.10353L5.2178 9.89288C5.37624 10.0098 5.52748 10.1487 5.67152 10.3095C5.82996 10.4556 6.00281 10.6384 6.19006 10.8576C6.37731 11.0623 6.52855 11.2231 6.64378 11.34C6.68699 11.3839 6.75181 11.4716 6.83823 11.6031C6.92465 11.7347 6.98947 11.8224 7.03268 11.8662C7.16232 11.9978 7.29915 12.217 7.44319 12.524C7.58723 12.831 7.72407 13.0502 7.8537 13.1818C8.17059 13.5034 8.38665 13.8981 8.50188 14.3658C8.67472 14.7166 8.76115 15.0236 8.76115 15.2867C8.68913 15.3306 8.6099 15.3525 8.52348 15.3525C8.43706 15.3525 8.33623 15.3379 8.221 15.3086C8.12017 15.294 8.04095 15.2867 7.98334 15.2867H7.8537C7.81049 15.2429 7.70966 15.199 7.55122 15.1552C7.39278 15.1113 7.27755 15.0674 7.20553 15.0236C7.03268 14.8482 6.90305 14.7605 6.81663 14.7605C6.7158 14.7605 6.62937 14.7386 6.55736 14.6947C6.49974 14.6509 6.45653 14.6289 6.42772 14.6289C6.3701 14.6289 6.3341 14.6289 6.31969 14.6289C6.30529 14.6143 6.29809 14.5705 6.29809 14.4974C6.21166 14.4097 6.03882 14.3658 5.77955 14.3658C5.73634 14.322 5.68592 14.2781 5.62831 14.2343C5.57069 14.1904 5.52028 14.1466 5.47707 14.1027C5.43385 14.0588 5.37624 14.0369 5.30422 14.0369C5.2466 14.0369 5.2178 14.015 5.2178 13.9711C5.13137 13.8834 5.00174 13.8396 4.82889 13.8396H4.69926C4.69926 13.7957 4.67765 13.7519 4.63444 13.708C4.59123 13.6642 4.53361 13.6203 4.46159 13.5765C4.38957 13.518 4.33916 13.4741 4.31035 13.4449C3.92145 13.3134 3.61897 13.1379 3.40291 12.9187C3.31649 12.8748 3.18685 12.7944 3.01401 12.6775C2.85556 12.5459 2.73313 12.4582 2.64671 12.4144C2.40184 12.2536 2.17858 12.027 1.97693 11.7347Z" fill="#0E254B"/>
<path d="M14.7542 16.4927L15.2079 16.6023C15.1503 16.7046 14.9127 16.8873 14.4949 17.1504C14.0772 17.4282 13.8396 17.6328 13.782 17.7644C13.6523 17.969 13.5155 18.1517 13.3714 18.3125C13.2274 18.4879 13.1122 18.6414 13.0258 18.773C12.9393 18.9191 12.8601 19.1311 12.7881 19.4088L12.3128 20.3517C12.3992 20.8486 12.3776 21.3676 12.2479 21.9084C12.1903 21.9523 12.1759 22.0254 12.2047 22.1277C12.2479 22.2446 12.2696 22.325 12.2696 22.3689C12.2984 22.4566 12.3128 22.5443 12.3128 22.632C12.2696 22.6904 12.2984 22.8074 12.3992 22.9828C12.5 23.1582 12.5936 23.2751 12.6801 23.3336C12.8529 23.3628 13.0258 23.3482 13.1986 23.2898C13.3714 23.2313 13.5371 23.1217 13.6955 22.9609C13.8684 22.8147 13.998 22.6831 14.0844 22.5662C14.1853 22.4639 14.3149 22.3031 14.4733 22.0838C14.6318 21.8792 14.7254 21.7549 14.7542 21.7111C14.7974 21.638 14.8406 21.5064 14.8839 21.3164C14.9415 21.141 14.9847 21.0167 15.0135 20.9437C15.2439 20.6659 15.3376 20.4394 15.2944 20.264C15.4384 19.8254 15.5248 19.5477 15.5536 19.4308C15.7265 18.8753 15.7625 18.3418 15.6617 17.8301C15.6761 17.7278 15.7193 17.5524 15.7913 17.3039C15.8633 17.07 15.8993 16.8946 15.8993 16.7777C15.9137 16.6608 15.8849 16.4634 15.8129 16.1857C15.7985 16.0395 15.7985 15.6814 15.8129 15.1113C15.8417 14.5266 15.8561 14.1392 15.8561 13.9492C15.8561 13.9054 15.8201 13.5472 15.7481 12.8748C15.6761 12.1878 15.6329 11.625 15.6184 11.1865C15.4312 12.1659 15.3376 12.6775 15.3376 12.7214C15.3088 12.9552 15.1791 13.2841 14.9487 13.708C14.7182 14.1173 14.5886 14.3585 14.5598 14.4316C14.5886 14.607 14.4085 14.9871 14.0196 15.5718C13.6307 16.1711 13.3498 16.5292 13.177 16.6461C13.0762 16.7485 12.9537 16.7996 12.8097 16.7996C12.4784 16.8727 12.2047 16.9239 11.9887 16.9531C11.787 16.9823 11.5422 16.9896 11.2541 16.975C10.966 16.975 10.7211 16.9019 10.5195 16.7558C10.3178 16.6242 10.1522 16.4196 10.0226 16.1418C9.99374 16.0687 9.94333 15.9591 9.87131 15.8129C9.79929 15.6668 9.74168 15.5425 9.69846 15.4402C9.65525 15.3525 9.61204 15.2502 9.56883 15.1332C9.52562 15.0163 9.48961 14.9067 9.4608 14.8043C9.4464 14.6874 9.4464 14.5778 9.4608 14.4754C9.4752 14.3 9.4536 13.9711 9.39598 13.4888C9.32396 12.9918 9.29516 12.6483 9.30956 12.4582C9.32396 12.2097 9.35277 11.9539 9.39598 11.6908C9.42479 11.4277 9.4464 11.2084 9.4608 11.033C9.4752 10.8576 9.4752 10.6311 9.4608 10.3533C9.4608 10.2072 9.50401 9.83441 9.59044 9.23509C9.69126 8.62116 9.85691 7.88298 10.0874 7.02055C10.3178 6.1435 10.5843 5.48572 10.8868 5.04719C11.1605 4.85717 11.3333 4.75485 11.4053 4.74023C11.5061 4.66714 11.7006 4.68176 11.9887 4.78408C12.2768 4.87178 12.4712 4.95949 12.572 5.04719C12.6296 5.09105 12.6945 5.1349 12.7665 5.17875C12.8529 5.2226 12.9033 5.25915 12.9177 5.28838C12.9465 5.303 12.9753 5.33223 13.0041 5.37609C13.033 5.41994 13.0474 5.4711 13.0474 5.52957C13.1482 5.8073 13.033 6.49432 12.7017 7.59063C12.3704 8.67232 12.2119 9.34472 12.2263 9.60784C12.2551 9.78325 12.2263 10.0683 12.1399 10.463C12.0535 10.8576 12.0175 11.1427 12.0319 11.3181C11.8158 13.2622 11.8374 14.6655 12.0967 15.5279C12.1975 15.8933 12.392 16.0761 12.6801 16.0761C12.9249 15.9006 13.1554 15.5425 13.3714 15.0017C13.6019 14.4462 13.7387 14.0077 13.782 13.6861C13.926 13.1014 14.1637 11.6177 14.4949 9.23509C14.5814 8.86965 14.6318 8.42382 14.6462 7.89759C14.603 7.41522 14.6822 6.78667 14.8839 6.01195C15.0999 5.89501 15.4024 5.84384 15.7913 5.85846C16.1802 5.85846 16.5259 5.8877 16.8284 5.94617C16.9868 6.06311 17.0732 6.21659 17.0876 6.40662C17.1165 6.59664 17.1092 6.92553 17.066 7.39329C17.0948 7.53947 17.0876 8.00723 17.0444 8.79657C17.0012 9.58591 17.0228 10.0537 17.1092 10.1998C17.1525 10.4337 17.1309 10.6749 17.0444 10.9234C16.9724 11.1573 16.9868 11.3912 17.0876 11.625C17.1597 11.7566 17.1741 11.932 17.1309 12.1513C17.0876 12.3705 17.102 12.5459 17.1741 12.6775C17.1885 12.7652 17.1885 12.8456 17.1741 12.9187C17.1741 12.9772 17.1741 13.0356 17.1741 13.0941C17.1741 13.1379 17.1957 13.1745 17.2389 13.2037L17.2821 14.1027C17.3397 14.2196 17.3757 14.3585 17.3901 14.5193C17.4045 14.6655 17.4117 14.8336 17.4117 15.0236C17.4261 15.199 17.4333 15.3013 17.4333 15.3306C17.5198 15.5498 17.5342 15.7106 17.4765 15.8129C17.4189 15.9153 17.4261 16.0687 17.4982 16.2734C17.6134 16.5073 17.6278 16.6827 17.5414 16.7996C17.4693 16.9312 17.4477 17.1212 17.4765 17.3697L17.5414 17.7205C17.6134 17.779 17.6422 18.0567 17.6278 18.5537C17.6134 19.0653 17.5702 19.3577 17.4982 19.4308C17.4693 20.147 17.3613 20.6879 17.1741 21.0533C17.0732 21.5064 16.9508 21.828 16.8068 22.018C16.7636 22.1204 16.6771 22.2812 16.5475 22.5004C16.4323 22.7197 16.3458 22.8805 16.2882 22.9828C16.101 23.2605 15.9209 23.4579 15.7481 23.5748C15.6761 23.6187 15.5824 23.7064 15.4672 23.8379C15.352 23.9841 15.2511 24.0864 15.1647 24.1449C15.1359 24.1741 15.0927 24.2253 15.0351 24.2984C14.9775 24.3715 14.9415 24.4153 14.9271 24.4299C14.9127 24.4592 14.8839 24.4957 14.8406 24.5396C14.7974 24.598 14.7614 24.6346 14.7326 24.6492C14.7038 24.6638 14.6606 24.6784 14.603 24.693C14.5598 24.7223 14.5094 24.7442 14.4517 24.7588C14.3941 24.7734 14.3293 24.7807 14.2573 24.7807C14.1277 24.8684 13.926 24.9269 13.6523 24.9561L13.3931 25C13.0474 25 12.6801 24.8319 12.2912 24.4957C11.9023 24.1595 11.6646 23.8087 11.5782 23.4432C11.3477 23.1363 11.2037 22.7124 11.1461 22.1715C11.0884 21.6453 11.1461 21.1702 11.3189 20.7463C11.4341 20.264 11.5134 19.9497 11.5566 19.8035C11.6142 19.6719 11.7654 19.4088 12.0103 19.0142C12.1831 18.6341 12.5864 18.1371 13.2202 17.5232C13.854 16.9239 14.3653 16.5804 14.7542 16.4927Z" fill="#0E254B"/>
<path d="M25.1927 7.43715C25.1927 7.39329 25.1711 7.34944 25.1279 7.30559C25.0847 7.26174 25.063 7.21788 25.063 7.17403C24.991 7.21788 24.919 7.27635 24.847 7.34944C24.7894 7.40791 24.7318 7.47369 24.6741 7.54678C24.6165 7.61986 24.5733 7.67102 24.5445 7.70026C24.1988 8.13878 23.8531 8.79657 23.5074 9.67361C23.1905 10.1121 22.9313 10.5799 22.7296 11.0769C22.4704 11.7493 22.2615 12.4729 22.1031 13.2476C22.0166 13.5984 21.9518 13.8907 21.9086 14.1246C21.8654 14.3439 21.8366 14.5266 21.8222 14.6728C21.8222 14.819 21.8078 15.0674 21.779 15.4183C21.7646 15.7837 21.7358 16.1784 21.6925 16.6023C21.6493 16.9823 21.6493 17.7571 21.6925 18.9265C21.7502 20.1105 21.7934 21.0898 21.8222 21.8646C21.851 22.6539 21.8078 23.2386 21.6925 23.6187C21.5197 23.6187 21.4333 23.6625 21.4333 23.7502C21.3901 23.7941 21.3252 23.816 21.2388 23.816C21.1524 23.816 21.0876 23.8379 21.0444 23.8818C20.7851 23.8818 20.6123 23.8379 20.5258 23.7502C20.4826 23.7502 20.4178 23.7283 20.3314 23.6844C20.245 23.6406 20.1801 23.6187 20.1369 23.6187C19.9641 23.5309 19.7912 23.3994 19.6184 23.224C19.5464 23.034 19.5104 22.6612 19.5104 22.1057C19.5104 21.5503 19.5464 21.1775 19.6184 20.9875V20.3297C19.6184 20.0812 19.6112 19.8474 19.5968 19.6281C19.5824 19.4088 19.5752 19.1384 19.5752 18.8168V17.7644C19.604 17.6767 19.6256 17.5963 19.64 17.5232C19.6544 17.4501 19.6544 17.3916 19.64 17.3478C19.64 17.3039 19.6328 17.2381 19.6184 17.1504C19.6184 17.0627 19.6184 16.9823 19.6184 16.9092C19.6616 16.7338 19.6832 16.478 19.6832 16.1418C19.6832 15.8202 19.7048 15.5937 19.748 15.4621C19.7912 14.2635 19.8489 13.1745 19.9209 12.1951C19.9929 11.2158 20.0289 10.5945 20.0289 10.3314V9.67361C20.1153 9.4982 20.1585 9.14739 20.1585 8.62116L20.2666 7.96337C20.2234 7.91952 20.2234 7.63448 20.2666 7.10825C19.4599 9.25702 18.8694 10.6457 18.4949 11.2742C18.3797 11.5227 18.2572 11.6762 18.1276 11.7347C18.0124 11.6762 17.9475 11.5666 17.9331 11.4058C17.9043 11.245 17.9259 11.1354 17.998 11.0769C18.0844 10.9015 18.214 10.5507 18.3869 10.0244C18.5741 9.48359 18.7109 9.12546 18.7974 8.95005C18.8406 8.86235 18.963 8.56269 19.1647 8.05108C19.3807 7.52485 19.5104 7.21788 19.5536 7.13018C19.5968 7.04247 19.6616 6.83052 19.748 6.49432C19.8488 6.15812 19.9209 5.94617 19.9641 5.85846C19.9641 5.66844 20.0433 5.44186 20.2017 5.17875C20.3602 4.91564 20.5114 4.74754 20.6555 4.67445C21.0732 4.67445 21.4477 4.76946 21.779 4.95949C22.1247 5.1349 22.3047 5.34685 22.3191 5.59535C22.2471 5.78537 22.1967 5.93886 22.1679 6.0558C22.1535 6.17274 22.1391 6.30429 22.1247 6.45047C22.1103 6.59664 22.0886 6.75013 22.0598 6.91092C22.0598 7.34944 22.0166 7.70026 21.9302 7.96337L21.8222 8.62116C21.7934 8.8258 21.7718 9.15469 21.7574 9.60784C21.743 10.0464 21.7141 10.4045 21.6709 10.6822C21.6133 11.0915 21.5845 11.3765 21.5845 11.5373C21.6421 11.3765 21.7069 11.1427 21.779 10.8357C21.8654 10.5141 21.9446 10.2364 22.0166 10.0025C22.1031 9.76863 22.2111 9.52744 22.3407 9.27894C22.6288 8.41651 23.0177 7.67102 23.5074 7.04247C23.5939 6.99862 23.7019 6.91092 23.8315 6.77936C23.9612 6.6478 24.0692 6.5601 24.1556 6.51625C24.7462 6.06311 25.3079 5.9754 25.8409 6.25313L25.9705 6.38469C26.0281 6.44316 26.1289 6.53086 26.273 6.6478C26.417 6.75013 26.5394 6.85976 26.6403 6.9767C26.7555 7.07902 26.8347 7.18865 26.8779 7.30559C26.8779 7.5687 26.9211 7.74411 27.0076 7.83182V8.09493C27.0508 8.25572 27.0724 8.42382 27.0724 8.59923C27.0724 8.77464 27.058 8.97198 27.0292 9.19124C27.0148 9.39588 27.0076 9.55667 27.0076 9.67361L26.7483 10.8576V11.5154C26.6619 11.6031 26.6187 11.7785 26.6187 12.0416C26.8347 11.7785 27.0364 11.4277 27.2236 10.9892C27.4253 10.536 27.6125 10.1779 27.7854 9.9148C27.8286 9.94404 27.879 9.97327 27.9366 10.0025C28.0086 10.0171 28.0662 10.039 28.1095 10.0683C28.1527 10.0975 28.1743 10.1341 28.1743 10.1779C28.1743 10.5141 28.0807 10.7772 27.8934 10.9673C27.3461 11.9612 26.8203 12.714 26.3162 13.2257C26.3162 13.2403 26.3018 13.306 26.273 13.423C26.2442 13.5399 26.2226 13.6423 26.2082 13.73C26.0209 14.4754 25.8336 14.9944 25.6464 15.2867C25.4159 15.7545 25.2575 16.1199 25.1711 16.383C24.9982 16.7338 24.7029 17.1212 24.2852 17.5451C23.8963 17.9398 23.5506 18.0348 23.2482 17.8301C23.0753 17.8301 22.9457 17.7863 22.8593 17.6986C22.7584 17.6986 22.6576 17.6328 22.5568 17.5013C22.4559 17.3697 22.3695 17.2893 22.2975 17.2601C22.2543 17.2162 22.2327 17.1358 22.2327 17.0189C22.2327 16.9019 22.2399 16.7704 22.2543 16.6242C22.2831 16.478 22.2975 16.3976 22.2975 16.383C22.4415 15.9006 22.5712 15.5644 22.6864 15.3744C22.8448 15.1552 22.9457 15.009 22.9889 14.9359C23.1905 14.5558 23.6083 14.0735 24.242 13.4888C24.9046 11.4569 25.2215 9.43973 25.1927 7.43715ZM23.2049 15.5498C23.0321 15.9006 22.9601 16.0907 22.9889 16.1199C22.9889 16.1638 23.0393 16.1857 23.1401 16.1857C23.3418 15.8787 23.493 15.5791 23.5939 15.2867C23.7811 14.7751 23.8891 14.4828 23.9179 14.4097C23.4858 14.9651 23.2482 15.3452 23.2049 15.5498Z" fill="#0E254B"/>
<path d="M36.0336 9.65169C36.0624 9.6663 36.084 9.69554 36.0984 9.73939C36.1128 9.78325 36.1128 9.84171 36.0984 9.9148C36.0984 9.98789 36.0768 10.0683 36.0336 10.156C35.9903 10.1998 35.8823 10.4045 35.7095 10.7699C35.5366 11.1207 35.4286 11.3181 35.3854 11.3619C35.3278 11.5373 35.1261 11.8882 34.7804 12.4144C34.7804 12.6483 34.5932 12.9552 34.2187 13.3353C34.2187 13.423 34.1322 13.5545 33.9594 13.73L33.7001 14.2562C33.5273 14.4316 33.4409 14.5631 33.4409 14.6509C33.4409 14.8555 33.2968 15.0601 33.0087 15.2648C32.7207 15.4694 32.519 15.484 32.4038 15.3086C32.3174 15.3086 32.2741 15.2648 32.2741 15.1771C32.1013 15.0017 31.9285 14.8701 31.7556 14.7824C31.698 14.7824 31.6404 14.7386 31.5828 14.6509C31.5251 14.5485 31.4963 14.4608 31.4963 14.3877V14.1246C31.5828 13.6861 31.626 13.116 31.626 12.4144V12.1513L31.4963 12.2828C31.4099 12.4582 31.2803 12.6336 31.1074 12.8091C31.1074 12.9845 31.021 13.1599 30.8482 13.3353C30.8194 13.3645 30.7761 13.4157 30.7185 13.4888C30.6609 13.5619 30.5961 13.6349 30.5241 13.708C30.4665 13.7665 30.4016 13.8177 30.3296 13.8615C29.9407 14.1246 29.5302 14.2269 29.0981 14.1685C28.6804 14.0954 28.3131 13.8615 27.9962 13.4668C27.8089 13.2768 27.6361 12.9918 27.4777 12.6117C27.3192 12.2171 27.24 11.8882 27.24 11.625C27.1824 11.3035 27.1896 10.9015 27.2616 10.4191C27.3336 9.92211 27.4344 9.53475 27.5641 9.25702C27.6937 8.76002 27.8017 8.40921 27.8882 8.20456C27.9746 7.99992 28.1546 7.6491 28.4283 7.1521C28.8316 6.4797 29.2205 5.90231 29.595 5.41994C29.6382 5.37609 29.7679 5.27376 29.9839 5.11297C30.2144 4.93756 30.3512 4.82793 30.3944 4.78408C30.4665 4.71099 30.6321 4.63791 30.8914 4.56482C31.165 4.49173 31.3307 4.4698 31.3883 4.49904C31.5756 4.57213 31.7052 4.60867 31.7772 4.60867C32.3822 4.75485 32.7423 5.06912 32.8575 5.5515C32.8143 5.5515 32.7207 5.56611 32.5766 5.59535C32.447 5.60997 32.3606 5.61727 32.3174 5.61727C32.2453 5.61727 32.1085 5.69036 31.9068 5.83654C31.7196 5.98271 31.626 6.08503 31.626 6.1435C31.5972 6.17274 31.5323 6.23851 31.4315 6.34084C31.3307 6.42854 31.2587 6.50163 31.2155 6.5601C31.1722 6.60395 31.1218 6.67704 31.0642 6.77936C31.021 6.86706 30.9994 6.95477 30.9994 7.04247L30.7185 7.41522C30.5745 7.56139 30.4232 7.83912 30.2648 8.24841C30.1064 8.6577 29.9983 8.9062 29.9407 8.9939C29.9407 9.08161 29.8543 9.21317 29.6814 9.38857C29.6382 9.52013 29.5518 9.76132 29.4222 10.1121C29.2925 10.463 29.2061 10.7041 29.1629 10.8357C29.1629 11.1865 29.0765 11.4058 28.9036 11.4935C28.9036 11.625 28.8892 11.8443 28.8604 12.1513C28.8316 12.4436 28.846 12.619 28.9036 12.6775C28.9036 12.7944 28.9973 12.8895 29.1845 12.9625C29.3718 13.021 29.4942 13.0137 29.5518 12.9406C29.7247 12.8529 29.8975 12.7214 30.0704 12.5459C30.2288 12.3559 30.3656 12.1513 30.4809 11.932C30.6105 11.7127 30.7617 11.435 30.9346 11.0988C31.1074 10.7626 31.2515 10.4995 31.3667 10.3095C31.5395 10.1341 31.626 9.8271 31.626 9.38857L31.7556 9.12546C31.7556 8.96467 31.7628 8.83311 31.7772 8.73079C31.806 8.62847 31.8492 8.51153 31.9068 8.37997C31.9645 8.2338 32.0005 8.13147 32.0149 8.073C32.1013 7.89759 32.1445 7.63448 32.1445 7.28366C32.1445 7.15211 32.1661 6.95477 32.2093 6.69166C32.2525 6.42854 32.2741 6.23121 32.2741 6.09965C32.591 5.88039 32.9367 5.83654 33.3112 5.96809C33.3976 6.0558 33.5273 6.09965 33.7001 6.09965C33.7145 6.11427 33.7505 6.15081 33.8082 6.20928C33.8802 6.25313 33.9162 6.28968 33.9162 6.31891C33.9306 6.33353 33.9522 6.37738 33.981 6.45047C34.0242 6.52356 34.017 6.58203 33.9594 6.62588C34.017 6.71358 34.0602 6.8159 34.089 6.93284C34.1178 7.03517 34.125 7.13018 34.1106 7.21788C34.1106 7.29097 34.1034 7.39329 34.089 7.52485C34.089 7.65641 34.089 7.75142 34.089 7.80989L33.7001 9.78325V10.1779C33.7001 10.441 33.6785 10.8649 33.6353 11.4496C33.5921 12.0197 33.5705 12.429 33.5705 12.6775V13.2037C33.5993 13.1891 33.7289 13.0137 33.9594 12.6775C34.161 12.3851 34.4347 11.9101 34.7804 11.2523C35.1261 10.5945 35.3926 10.1194 35.5798 9.8271C35.5798 9.71016 35.7311 9.65169 36.0336 9.65169Z" fill="#0E254B"/>
<path d="M39.7378 11.9759L39.6513 12.0636C39.6513 12.2244 39.6225 12.334 39.5649 12.3925C39.5505 12.4363 39.5721 12.4144 39.6297 12.3267C40.0618 11.625 40.5444 10.6311 41.0773 9.34472L41.2502 8.88427C41.3366 8.65039 41.4014 8.46768 41.4446 8.33612C41.4734 8.24841 41.5022 8.05108 41.531 7.74411C41.5598 7.42253 41.5815 7.21788 41.5959 7.13018C41.6535 6.92553 41.7039 6.6478 41.7471 6.29698C41.7903 5.93155 41.8695 5.61727 41.9848 5.35416C42.0712 5.19337 42.3521 5.11297 42.8274 5.11297C42.8274 5.17144 42.8778 5.20068 42.9786 5.20068C43.0939 5.31762 43.1299 5.42725 43.0867 5.52957C43.0578 5.60266 43.0506 5.66843 43.065 5.7269C43.0795 5.77076 43.1011 5.85115 43.1299 5.96809C43.1587 6.07041 43.1731 6.15081 43.1731 6.20928L43.1083 6.29698C43.1371 6.45778 43.0939 6.67704 42.9786 6.95477C42.8634 7.21788 42.7986 7.39329 42.7842 7.481C42.7698 7.58332 42.741 7.75142 42.6978 7.9853C42.6689 8.20456 42.6401 8.37266 42.6113 8.4896C42.5969 8.54807 42.5753 8.63578 42.5465 8.75272C42.5321 8.86965 42.5105 8.95736 42.4817 9.01583C42.4673 9.32279 42.4025 9.73208 42.2872 10.2437C42.1864 10.7553 42.1288 11.0477 42.1144 11.1207L42.136 11.3839C42.2368 11.2377 42.3305 11.0696 42.4169 10.8796C42.7482 10.2802 42.9786 9.88557 43.1083 9.69554C43.1659 9.46166 43.2019 9.31549 43.2163 9.25702C43.3459 9.12546 43.4107 9.01583 43.4107 8.92812C43.5836 8.46037 43.8501 7.89759 44.2102 7.23981C44.2966 7.12287 44.4118 6.93284 44.5559 6.66973C44.6999 6.40662 44.8007 6.2239 44.8583 6.12158C44.9159 6.04849 45.0096 5.93886 45.1392 5.79268C45.2832 5.64651 45.3841 5.52957 45.4417 5.44186C45.4561 5.44186 45.4705 5.42725 45.4849 5.39801C45.5137 5.36878 45.5425 5.35416 45.5713 5.35416C45.6289 5.25184 45.773 5.20068 46.0034 5.20068H46.5004C46.6588 5.20068 46.7668 5.22991 46.8245 5.28838C46.8965 5.31762 46.9829 5.36147 47.0837 5.41994C47.1846 5.47841 47.2494 5.51495 47.2782 5.52957C47.5086 5.66113 47.6527 5.77807 47.7103 5.88039C48.056 6.20197 48.2432 6.59664 48.272 7.0644C48.2864 7.29828 48.2792 7.52485 48.2504 7.74411C48.2648 7.93414 48.1856 8.1534 48.0128 8.4019C48.0128 8.43113 47.9984 8.49691 47.9696 8.59923C47.9552 8.68694 47.948 8.74541 47.948 8.77464C47.9336 8.78926 47.9119 8.8258 47.8831 8.88427C47.8687 8.94274 47.8471 8.98659 47.8183 9.01583C47.7895 9.0743 47.7463 9.14008 47.6887 9.21316C47.6455 9.27163 47.6167 9.31549 47.6023 9.34472C47.5158 9.50551 47.415 9.62245 47.2998 9.69554C47.271 9.69554 47.2278 9.71016 47.1701 9.73939C47.1269 9.76863 47.0765 9.78325 47.0189 9.78325C46.9613 9.78325 46.9109 9.75401 46.8677 9.69554C46.6804 9.34472 46.5724 9.05968 46.5436 8.84042C46.5436 8.8258 46.558 8.78926 46.5868 8.73079C46.6156 8.67232 46.63 8.62116 46.63 8.57731C47.0477 7.93414 47.2998 7.5687 47.3862 7.481C47.5446 7.30559 47.5879 7.11556 47.5158 6.91092C47.5158 6.8963 47.5014 6.85976 47.4726 6.80129C47.4438 6.7282 47.4294 6.66973 47.4294 6.62588C47.2998 6.33353 47.1125 6.11427 46.8677 5.96809C46.45 6.21659 46.1619 6.55279 46.0034 6.9767L45.917 7.1521C45.8594 7.21057 45.8018 7.29097 45.7442 7.39329C45.6865 7.49562 45.6505 7.55408 45.6361 7.5687C45.5497 7.8172 45.5065 7.96337 45.5065 8.00723C45.4489 8.05108 45.4201 8.10224 45.4201 8.16071C45.3769 8.21918 45.3553 8.27765 45.3553 8.33612C45.3553 8.37997 45.3481 8.44575 45.3337 8.53345C45.3192 8.62116 45.312 8.70155 45.312 8.77464L45.3769 8.84042C45.3048 8.97198 45.204 9.22778 45.0744 9.60784C45.0888 9.63707 45.0816 9.68092 45.0528 9.73939C45.024 9.79786 45.0096 9.84171 45.0096 9.87095C45.0096 9.98789 44.9952 10.0683 44.9664 10.1121C44.9375 10.2291 44.9159 10.3533 44.9015 10.4849C44.8871 10.6018 44.8727 10.7188 44.8583 10.8357C44.8871 10.9234 44.8727 11.0111 44.8151 11.0988C44.8151 11.128 44.8007 11.1938 44.7719 11.2962C44.7575 11.3839 44.7503 11.4569 44.7503 11.5154C44.8223 11.5154 44.8583 11.5739 44.8583 11.6908C44.8151 11.7639 44.7935 11.932 44.7935 12.1951L44.9231 12.7214C44.9664 12.7944 45.0024 12.9114 45.0312 13.0722C45.0312 13.1306 45.0888 13.2257 45.204 13.3572L45.2256 13.5107C45.3409 13.73 45.4201 13.8761 45.4633 13.9492C45.5065 14.0808 45.5929 14.205 45.7226 14.322C45.8522 14.4389 45.9818 14.4974 46.1115 14.4974C46.4427 14.4974 46.6732 14.4828 46.8028 14.4535C46.9469 14.4097 47.1125 14.3 47.2998 14.1246C47.4294 14.0223 47.5302 13.92 47.6023 13.8177C47.6743 13.7007 47.7535 13.5399 47.8399 13.3353C47.9263 13.116 47.984 12.9845 48.0128 12.9406C48.5457 12.0343 48.877 11.3912 49.0066 11.0111C49.0066 10.9965 49.0571 10.8503 49.1579 10.5726C49.2731 10.2949 49.3379 10.1121 49.3523 10.0244C49.3811 10.0244 49.4171 10.0025 49.4604 9.95865C49.5036 9.90018 49.5468 9.87826 49.59 9.89288C49.6332 9.89288 49.6836 9.94404 49.7412 10.0464C49.7412 10.061 49.7412 10.0975 49.7412 10.156C49.7412 10.2145 49.7412 10.251 49.7412 10.2656C49.7412 10.3241 49.7052 10.4556 49.6332 10.6603C49.5756 10.8649 49.5468 10.9965 49.5468 11.055C49.5756 11.1427 49.554 11.2304 49.482 11.3181C49.4388 11.625 49.2875 12.122 49.0282 12.8091C48.5385 13.7592 48.2648 14.2927 48.2072 14.4097C47.5014 15.4475 46.7092 15.9883 45.8306 16.0322C45.7298 16.0614 45.5857 16.0322 45.3985 15.9445C44.9664 15.8276 44.6711 15.696 44.5126 15.5498C44.4406 15.5498 44.3758 15.5206 44.3182 15.4621C44.2174 15.389 44.0805 15.2721 43.9077 15.1113C43.7492 14.9359 43.6484 14.8263 43.6052 14.7824C43.5332 14.7239 43.4756 14.6216 43.4323 14.4754C43.3891 14.3293 43.3459 14.2269 43.3027 14.1685C43.2739 14.1392 43.1875 14.0296 43.0434 13.8396C42.885 13.3572 42.8058 12.9918 42.8058 12.7433L42.741 11.8224C42.6978 11.7785 42.6617 11.7712 42.6329 11.8005C42.6041 11.8151 42.5897 11.8443 42.5897 11.8882C42.5609 11.9612 42.5033 12.0855 42.4169 12.2609C42.3449 12.4217 42.2944 12.5533 42.2656 12.6556L42.136 12.9187C42.136 12.9625 42.1216 13.0283 42.0928 13.116C42.0784 13.2037 42.0712 13.2695 42.0712 13.3134C42.028 13.5034 41.9632 13.7592 41.8767 14.0808C41.8623 14.11 41.8407 14.1685 41.8119 14.2562C41.7831 14.3439 41.7471 14.4097 41.7039 14.4535C41.6607 14.4974 41.6391 14.5485 41.6391 14.607C41.5094 14.7532 41.4158 14.9432 41.3582 15.1771C41.3582 15.2063 41.351 15.2282 41.3366 15.2429C41.3222 15.2575 41.3006 15.2721 41.2718 15.2867C41.243 15.3013 41.2214 15.3233 41.207 15.3525H41.0341C40.9189 15.4987 40.8036 15.4987 40.6884 15.3525C40.6452 15.484 40.5732 15.5718 40.4724 15.6156C40.4003 15.6887 40.2923 15.6887 40.1483 15.6156C40.1051 15.6156 40.069 15.5644 40.0402 15.4621C40.069 15.3452 40.0907 15.2136 40.1051 15.0675C40.1339 14.9213 40.1483 14.8263 40.1483 14.7824C40.2203 14.2562 40.2779 13.7665 40.3211 13.3134C40.494 12.6848 40.5948 12.1878 40.6236 11.8224L40.8397 11.033C39.9898 12.6263 39.5649 13.4376 39.5649 13.4668C39.5361 13.5253 39.4353 13.6788 39.2624 13.9273C39.0896 14.1758 38.9888 14.3293 38.96 14.3877C38.8015 14.8409 38.499 15.2502 38.0525 15.6156C37.606 15.981 37.1667 16.1638 36.7346 16.1638C36.5473 16.1638 36.4249 16.1491 36.3673 16.1199C36.2376 16.0907 36.036 16.003 35.7623 15.8568C35.7335 15.8568 35.7047 15.8422 35.6759 15.8129C35.6471 15.7837 35.6183 15.7691 35.5894 15.7691C35.5894 15.6668 35.5174 15.6156 35.3734 15.6156C35.3158 15.6156 35.287 15.5864 35.287 15.5279L35.4382 15.3525C35.395 15.2794 35.3662 15.1552 35.3518 14.9797C35.3374 14.7897 35.3446 14.6509 35.3734 14.5631C35.3734 14.5339 35.3878 14.417 35.4166 14.2123C35.4454 13.9931 35.4742 13.803 35.503 13.6422C35.5318 13.4815 35.5678 13.3645 35.6111 13.2914C35.8559 12.8821 35.9856 12.6556 36 12.6117C36.0288 12.5533 36.0792 12.4802 36.1512 12.3925C36.2376 12.3048 36.288 12.239 36.3024 12.1951C36.4321 11.9174 36.6553 11.7274 36.9722 11.625C37.1307 11.5373 37.2603 11.5373 37.3611 11.625C37.4043 11.625 37.4259 11.647 37.4259 11.6908C37.4259 11.7347 37.4115 11.8005 37.3827 11.8882C37.3539 11.9612 37.3251 12.0343 37.2963 12.1074C37.2675 12.1805 37.2243 12.2682 37.1667 12.3705C37.1235 12.4729 37.0947 12.5386 37.0802 12.5679C36.8066 12.9918 36.6553 13.2914 36.6265 13.4668C36.5977 13.5253 36.5473 13.613 36.4753 13.73C36.4033 13.8469 36.3529 13.9346 36.324 13.9931C36.3096 14.0223 36.2736 14.1027 36.216 14.2343C36.1728 14.3512 36.1368 14.4462 36.108 14.5193C36.0936 14.5778 36.072 14.6582 36.0432 14.7605C36.0288 14.8628 36.0288 14.9505 36.0432 15.0236C36.072 15.0967 36.1152 15.1552 36.1728 15.199C36.2304 15.199 36.2736 15.1698 36.3024 15.1113C36.4321 14.9944 36.5617 14.8482 36.6913 14.6728C36.8498 14.4828 37.0298 14.1466 37.2315 13.6642C37.3467 13.4449 37.4548 13.211 37.5556 12.9625C37.6708 12.714 37.7572 12.5094 37.8148 12.3486C37.8725 12.1878 37.9445 11.9466 38.0309 11.625C38.1173 11.3035 38.1749 11.0915 38.2037 10.9892C38.2326 10.8869 38.2902 10.6384 38.3766 10.2437C38.463 9.8344 38.5134 9.60783 38.5278 9.56398C38.571 9.34472 38.6071 8.70886 38.6359 7.65641C38.6359 7.37867 38.5999 7.13018 38.5278 6.91092C38.4558 6.69166 38.3622 6.5601 38.247 6.51625C38.1317 6.45778 38.0165 6.46509 37.9013 6.53817C37.8437 6.58202 37.786 6.62588 37.7284 6.66973C37.6852 6.71358 37.642 6.75013 37.5988 6.77936C37.57 6.8086 37.534 6.85245 37.4908 6.91092C37.4475 6.95477 37.4115 6.99131 37.3827 7.02055C37.3683 7.04978 37.3395 7.10094 37.2963 7.17403C37.2531 7.24712 37.2243 7.29828 37.2099 7.32752C37.1955 7.35675 37.1595 7.42253 37.1019 7.52485C37.0586 7.61255 37.0226 7.67833 36.9938 7.72219C36.9794 7.75142 36.9362 7.83182 36.8642 7.96337C36.8066 8.09493 36.7634 8.18994 36.7346 8.24841C36.6769 8.33612 36.6049 8.49691 36.5185 8.73079C36.4321 8.96467 36.3601 9.12546 36.3024 9.21316C36.3168 9.31549 36.2376 9.43243 36.0648 9.56398C36.0504 9.62245 36.0144 9.71016 35.9567 9.8271C35.8991 9.92942 35.8631 10.0098 35.8487 10.0683C35.8919 10.1121 35.8487 10.2875 35.7191 10.5945C35.6039 10.8869 35.4598 11.1646 35.287 11.4277C35.1141 11.6908 34.9989 11.7858 34.9413 11.7127C34.8693 11.6543 34.826 11.5958 34.8116 11.5373C34.7972 11.4643 34.7972 11.4131 34.8116 11.3839C34.8116 11.34 34.8332 11.2669 34.8765 11.1646C34.9197 11.0623 34.9485 10.9819 34.9629 10.9234C35.2366 10.2656 35.4382 9.75401 35.5678 9.38857C35.9423 8.29227 36.2448 7.58332 36.4753 7.26174C36.5761 7.07171 36.6625 6.88168 36.7346 6.69166C36.821 6.48701 36.9002 6.31891 36.9722 6.18735C37.0586 6.0558 37.1883 5.90231 37.3611 5.7269C37.75 5.31762 38.1533 5.0545 38.571 4.93756C38.6287 4.90833 38.7223 4.8864 38.8519 4.87178C38.9816 4.84255 39.0752 4.81331 39.1328 4.78408H39.2192C39.1328 4.81331 39.14 4.84255 39.2408 4.87178C39.284 4.87178 39.3128 4.8864 39.3272 4.91564C39.3417 4.94487 39.3849 4.95949 39.4569 4.95949C39.7162 5.07643 39.9034 5.26646 40.0186 5.52957C40.1483 5.70498 40.2131 5.82192 40.2131 5.88039C40.3859 6.18735 40.4868 6.52356 40.5156 6.88899C40.5588 7.4006 40.5732 7.68564 40.5588 7.74411C40.5876 7.97799 40.5732 8.17533 40.5156 8.33612C40.5156 8.52614 40.4868 8.67232 40.4291 8.77464L40.4508 9.01583C40.4363 9.13277 40.3931 9.35934 40.3211 9.69554C40.2635 10.0171 40.2275 10.2656 40.2131 10.441C40.1555 10.8649 40.0474 11.1792 39.889 11.3839C39.8458 11.4716 39.8242 11.6177 39.8242 11.8224L39.7378 11.9759Z" fill="#0E254B"/>
<path d="M57.375 9.34472C57.4182 9.46166 57.4542 9.53475 57.483 9.56398C57.5262 9.59322 57.5911 9.61514 57.6775 9.62976C57.7639 9.64438 57.8575 9.68823 57.9584 9.76132C57.9007 10.346 57.2958 10.7407 56.1435 10.9453C55.8842 10.9453 55.5313 10.9673 55.0848 11.0111C54.6383 11.055 54.2854 11.0769 54.0261 11.0769C53.7956 11.1207 53.4499 11.1646 52.989 11.2084C52.5425 11.2523 52.1968 11.2962 51.9519 11.34C51.7791 11.34 51.6063 11.4277 51.4334 11.6031C51.3038 11.53 51.2246 11.4789 51.1957 11.4496C51.1669 11.4204 51.1165 11.34 51.0445 11.2084C50.8717 10.6822 50.8717 10.2437 51.0445 9.89288C51.1741 9.62976 51.3902 9.4982 51.6927 9.4982C51.7647 9.54206 51.8511 9.56398 51.9519 9.56398C52.0672 9.56398 52.1896 9.55667 52.3192 9.54206C52.4489 9.51282 52.5425 9.4982 52.6001 9.4982C52.7442 9.4982 52.9098 9.47628 53.097 9.43243C53.2987 9.38857 53.4355 9.36665 53.5076 9.36665C54.1125 9.27894 54.7175 9.23509 55.3224 9.23509H56.4459C56.6476 9.162 56.9573 9.19855 57.375 9.34472Z" fill="#0E254B"/>
<path d="M62.6586 9.4982C62.8315 9.54206 63.0691 9.62976 63.3716 9.76132C63.6741 9.89288 63.9118 9.98058 64.0846 10.0244C64.3007 10.0683 64.6031 10.156 64.9921 10.2875C65.381 10.4191 65.6834 10.5068 65.8995 10.5507C66.2884 10.6822 66.5909 10.8576 66.8069 11.0769C67.095 11.2231 67.3111 11.4423 67.4551 11.7347C67.6712 12.0709 67.7144 12.5094 67.5847 13.0502C67.5415 13.0502 67.5055 13.0649 67.4767 13.0941C67.4623 13.1087 67.4551 13.1306 67.4551 13.1599V13.1818C67.4551 13.5911 67.2391 13.9419 66.8069 14.2343L66.0291 15.0236C65.8995 15.1405 65.705 15.3013 65.4458 15.506C65.2009 15.7252 64.9776 15.908 64.776 16.0541C64.5887 16.2149 64.4015 16.3538 64.2142 16.4707C63.7245 16.9677 63.2492 17.2747 62.7883 17.3916C62.7594 17.3916 62.7162 17.3989 62.6586 17.4135C62.6154 17.4428 62.5722 17.4574 62.529 17.4574C62.4858 17.4574 62.4426 17.4355 62.3994 17.3916C62.5722 17.2162 62.745 17.1285 62.9179 17.1285L63.0691 17.0189C63.17 16.9312 63.2492 16.8362 63.3068 16.7338H63.1772L62.6586 16.997C62.5722 17.0408 62.421 17.1066 62.2049 17.1943C61.9888 17.282 61.8376 17.3478 61.7512 17.3916V17.2601C61.708 17.2601 61.672 17.2455 61.6432 17.2162C61.6287 17.2455 61.6215 17.2601 61.6215 17.2601C61.5351 17.3039 61.3839 17.3478 61.1678 17.3916C60.9518 17.4355 60.8005 17.4793 60.7141 17.5232C60.5413 17.5232 60.4116 17.4793 60.3252 17.3916C60.3252 17.3039 60.2388 17.1724 60.0659 16.997C59.8931 16.8215 59.8067 16.69 59.8067 16.6023V16.2076C59.749 16.1345 59.7346 16.0468 59.7635 15.9445C59.8067 15.8568 59.8643 15.8129 59.9363 15.8129L60.3252 15.4183C60.3252 15.3744 60.3036 15.2867 60.2604 15.1552C60.2172 15.0236 60.1956 14.9359 60.1956 14.892L59.8067 12.9187V11.6031C59.7202 11.0769 59.677 10.2437 59.677 9.10353C59.677 8.92812 59.6986 8.64308 59.7418 8.24841C59.7851 7.85374 59.8067 7.5687 59.8067 7.39329C59.8499 6.99862 59.9147 6.38469 60.0011 5.5515C60.0875 4.7183 60.1524 4.10437 60.1956 3.7097C60.1956 3.57814 60.2172 3.38081 60.2604 3.11769C60.3036 2.85458 60.3252 2.65724 60.3252 2.52569C60.3252 2.42336 60.3468 2.32104 60.39 2.21872C60.4332 2.10178 60.4548 2.02869 60.4548 1.99946C60.1523 2.07254 59.8067 2.24795 59.4178 2.52569C59.2881 2.59877 59.2017 2.62801 59.1585 2.61339C59.1153 2.59877 59.0289 2.52569 58.8992 2.39413C58.8992 2.30642 58.8128 2.26257 58.6399 2.26257C58.6111 2.26257 58.5247 2.2845 58.3807 2.32835C58.2222 2.3722 58.0926 2.39413 57.9918 2.39413C57.9342 2.39413 57.8909 2.39413 57.8621 2.39413C57.8333 2.37951 57.8045 2.35758 57.7757 2.32835C57.7469 2.2845 57.7325 2.21872 57.7325 2.13101C57.6461 1.9556 57.6893 1.7802 57.8621 1.60479C58.5247 0.932384 59.4106 0.486552 60.5196 0.267291C61.6287 0.0334116 62.7306 -0.0469847 63.8253 0.0261025C64.4303 0.0261025 65.3377 0.201512 66.5477 0.55233C67.0662 0.815444 67.3687 0.990854 67.4551 1.07856C67.5271 1.07856 67.5631 1.08587 67.5631 1.10048C67.5775 1.10048 67.5847 1.13703 67.5847 1.21012C67.9736 1.34167 68.2329 1.60479 68.3625 1.99946C68.449 2.26257 68.4922 2.61339 68.4922 3.05191L68.1033 4.23593C68.0169 4.32363 67.9088 4.47711 67.7792 4.69637C67.6496 4.91564 67.5415 5.06912 67.4551 5.15682C67.4119 5.22991 67.3543 5.303 67.2823 5.37609C67.2246 5.43456 67.1454 5.50764 67.0446 5.59535C66.9438 5.68305 66.8646 5.75614 66.8069 5.81461L66.418 6.20928C66.3316 6.25313 66.2236 6.34084 66.0939 6.47239C65.9643 6.60395 65.8563 6.69166 65.7699 6.73551C65.597 6.91092 65.4242 7.04247 65.2513 7.13018C65.2081 7.17403 65.1433 7.21788 65.0569 7.26174C64.9704 7.30559 64.9056 7.34944 64.8624 7.39329C64.3439 7.91952 63.9118 8.31419 63.5661 8.57731C63.5084 8.63578 63.4148 8.72348 63.2852 8.84042C63.1556 8.94274 63.0331 9.05237 62.9179 9.16931C62.8171 9.27163 62.7306 9.38126 62.6586 9.4982ZM61.2326 1.8679V2.39413C61.2326 2.43798 61.2542 2.52568 61.2975 2.65724C61.3407 2.7888 61.3623 2.8765 61.3623 2.92036V5.15682V6.60395V6.99862C61.3623 7.52485 61.4055 7.91952 61.4919 8.18264C61.4055 8.27034 61.4055 8.31419 61.4919 8.31419C61.5351 8.31419 61.5639 8.30688 61.5783 8.29227C61.6071 8.26303 61.6215 8.2338 61.6215 8.20456V8.18264C61.7512 8.05108 61.9456 7.83182 62.2049 7.52485C62.4642 7.21788 62.6586 6.99862 62.7883 6.86707C63.0475 6.60395 63.4364 6.18735 63.955 5.61727C64.4735 5.04719 64.8624 4.6306 65.1217 4.36748C65.6834 3.7974 66.1588 3.18347 66.5477 2.52569C66.5909 2.48183 66.6341 2.41605 66.6773 2.32835C66.7205 2.24065 66.7637 2.17487 66.8069 2.13101C66.8069 2.08716 66.7853 2.04331 66.7421 1.99946C66.6989 1.95561 66.6773 1.91175 66.6773 1.8679C66.5909 1.83867 66.4684 1.7875 66.31 1.71442C66.1516 1.64133 66.0075 1.58286 65.8779 1.53901C65.7483 1.49516 65.6258 1.47323 65.5106 1.47323C65.4386 1.40014 65.3521 1.3636 65.2513 1.3636C65.1505 1.3636 65.0641 1.40014 64.9921 1.47323C64.9056 1.56093 64.7328 1.60479 64.4735 1.60479C64.3007 1.51708 64.0414 1.47323 63.6957 1.47323C63.2636 1.47323 62.7018 1.56093 62.0105 1.73634C61.6648 1.73634 61.4055 1.7802 61.2326 1.8679ZM61.3623 10.4191V10.8138V11.34C61.2759 11.4277 61.2326 11.647 61.2326 11.9978V13.0502C61.0598 13.7519 60.9302 14.2343 60.8437 14.4974V14.892V15.1552C60.8437 15.1113 60.8509 15.0821 60.8653 15.0675C60.8941 15.0382 60.923 15.0236 60.9518 15.0236H60.9734C61.3191 14.7605 61.8376 14.3877 62.529 13.9054C63.2204 13.423 63.7389 13.0502 64.0846 12.7871C64.2142 12.6994 64.3871 12.5679 64.6031 12.3925C64.8192 12.217 64.9921 12.0855 65.1217 11.9978C65.2081 11.9101 65.2513 11.8224 65.2513 11.7347C65.0785 11.7347 64.9488 11.6908 64.8624 11.6031C64.6031 11.6031 64.2142 11.5154 63.6957 11.34C63.0043 11.1646 62.529 10.9453 62.2697 10.6822C62.1833 10.5945 62.1401 10.5945 62.1401 10.6822C61.9672 10.6822 61.708 10.5945 61.3623 10.4191Z" fill="#0E254B"/>
<path d="M71.8674 7.96337C71.8962 7.93414 71.9322 7.91221 71.9754 7.89759C72.0187 7.86836 72.0475 7.84643 72.0619 7.83182C72.0907 7.80258 72.1051 7.76604 72.1051 7.72219H72.494C72.494 7.63448 72.5804 7.59063 72.7533 7.59063C72.8397 7.63448 72.9117 7.70026 72.9693 7.78796C73.0413 7.86105 73.1205 7.91952 73.207 7.96337C73.5815 8.09493 73.8912 8.34343 74.136 8.70886C74.208 8.78195 74.2729 8.9062 74.3305 9.08161C74.4025 9.25702 74.4601 9.46166 74.5033 9.69554C74.5609 9.92942 74.6041 10.0829 74.6329 10.156L74.5249 11.7127C74.5537 11.6981 74.7266 11.5666 75.0435 11.3181C75.1011 11.2596 75.2451 11.0403 75.4756 10.6603C75.49 10.6749 75.526 10.6895 75.5836 10.7041C75.6556 10.7041 75.706 10.7188 75.7348 10.748C75.7781 10.7626 75.7997 10.7918 75.7997 10.8357C75.7709 11.0111 75.6916 11.2084 75.562 11.4277C75.4324 11.647 75.3387 11.7712 75.2811 11.8005C74.9498 12.1367 74.6618 12.334 74.4169 12.3925L74.3737 12.5679C74.3305 12.6994 74.2873 12.8968 74.244 13.1599C74.2008 13.423 74.1576 13.6203 74.1144 13.7519C74.0856 13.7811 74.0568 13.8323 74.028 13.9054C73.9992 13.9785 73.9704 14.0369 73.9416 14.0808C73.9272 14.1246 73.8984 14.1466 73.8551 14.1466C73.7687 14.2343 73.7255 14.3658 73.7255 14.5412C73.7255 14.7166 73.6823 14.8482 73.5959 14.9359C73.5959 15.1113 73.5527 15.199 73.4662 15.199C73.3798 15.199 73.3366 15.2867 73.3366 15.4621C73.3078 15.4914 73.2718 15.5133 73.2286 15.5279C73.1998 15.5571 73.1782 15.5791 73.1638 15.5937C73.1638 15.6083 73.1638 15.6229 73.1638 15.6375C73.1638 15.6668 73.1782 15.696 73.207 15.7252C73.1349 15.7837 73.0701 15.8933 73.0125 16.0541C72.9549 16.2295 72.8901 16.3392 72.8181 16.383C72.7316 16.4269 72.6236 16.5146 72.494 16.6461C72.3643 16.7777 72.2563 16.8654 72.1699 16.9092C72.0835 17.0847 71.8674 17.2601 71.5217 17.4355C71.4785 17.4355 71.3921 17.4574 71.2625 17.5013C71.1328 17.5451 71.0464 17.567 71.0032 17.567H70.6143C70.0957 17.3039 69.7933 17.1285 69.7068 17.0408C69.4188 16.8946 69.2027 16.6754 69.0587 16.383C68.8858 16.2076 68.7994 16.0761 68.7994 15.9883C68.7994 15.9445 68.785 15.908 68.7562 15.8787C68.7418 15.8641 68.7274 15.8568 68.713 15.8568H68.6698C68.4105 15.3306 68.2809 14.8043 68.2809 14.2781C68.2809 14.205 68.252 13.9931 68.1944 13.6422C68.1368 13.2768 68.1368 13.0576 68.1944 12.9845C68.1944 12.7506 68.2232 12.429 68.2809 12.0197C68.3385 11.5958 68.3961 11.3254 68.4537 11.2084C68.5401 10.4776 68.8354 9.66631 69.3395 8.77464C69.4116 8.55538 69.7284 8.16071 70.2902 7.59063C70.3622 7.51754 70.4918 7.43714 70.6791 7.34944C70.8807 7.24712 71.0392 7.19596 71.1544 7.19596C71.212 7.22519 71.2697 7.24712 71.3273 7.26174C71.3849 7.27635 71.4281 7.28366 71.4569 7.28366C71.5001 7.28366 71.5289 7.29828 71.5433 7.32752C71.5721 7.35675 71.5865 7.4006 71.5865 7.45907V7.59063C71.3849 7.79527 71.2841 7.9853 71.2841 8.16071C71.2841 8.26303 71.2337 8.37997 71.1328 8.51153C71.0464 8.64308 71.0032 8.72348 71.0032 8.75272C70.8303 9.27894 70.7439 9.62976 70.7439 9.80517C70.7439 9.89288 70.7223 10.0244 70.6791 10.1998C70.6359 10.3753 70.6143 10.5068 70.6143 10.5945C70.5711 10.7261 70.4846 11.1207 70.355 11.7785C70.2254 12.4363 70.139 12.831 70.0957 12.9625V13.6203C70.0093 13.8834 69.9661 14.2343 69.9661 14.6728C69.9661 15.0236 70.0525 15.4621 70.2254 15.9883C70.5423 16.193 70.8879 16.1053 71.2625 15.7252C71.4209 15.5644 71.5649 15.294 71.6946 14.914C71.8386 14.5339 71.925 14.3073 71.9538 14.2343C72.1555 13.6788 72.3139 13.0795 72.4292 12.4363C71.7954 12.2901 71.3993 11.7566 71.2408 10.8357C71.0968 9.9148 71.2408 9.05237 71.673 8.24841C71.6874 8.17533 71.7522 8.08031 71.8674 7.96337ZM72.5588 11.1207C72.5588 10.9599 72.5732 10.7261 72.602 10.4191C72.6308 10.1121 72.638 9.84171 72.6236 9.60784C72.6092 9.37396 72.566 9.14008 72.494 8.9062C72.4508 8.87696 72.4148 8.8258 72.3859 8.75272C72.0258 8.95736 71.8386 9.44704 71.8242 10.2218C71.8242 10.9965 72.0403 11.5227 72.4724 11.8005C72.5156 11.4643 72.5444 11.2377 72.5588 11.1207Z" fill="#0E254B"/>
<path d="M81.8088 6.38469V5.99002C81.6359 5.79999 81.4919 5.69767 81.3767 5.68305C81.2614 5.65382 81.1174 5.69767 80.9445 5.81461C80.5844 5.81461 80.1955 6.00464 79.7778 6.38469C79.4321 6.61857 79.1945 6.88168 79.0648 7.17403C78.7768 7.53947 78.6399 7.97068 78.6543 8.46767C78.6831 8.96467 78.8776 9.35203 79.2377 9.62976C79.2377 9.7467 79.2809 9.83441 79.3673 9.89288C79.4105 9.87826 79.4393 9.84902 79.4537 9.80517C79.641 9.80517 79.8931 9.93673 80.2099 10.1998C80.4404 10.1998 80.6853 10.3314 80.9445 10.5945C80.9445 10.7115 80.9085 10.8357 80.8365 10.9673C80.7645 11.0988 80.7285 11.2669 80.7285 11.4716C80.6709 11.6031 80.5556 11.7931 80.3828 12.0416C80.2099 12.2901 80.0803 12.4948 79.9939 12.6556C79.4898 13.5911 78.82 14.3147 77.9846 14.8263C77.8981 14.914 77.7109 14.9797 77.4228 15.0236C77.1491 15.0528 76.9259 15.0236 76.753 14.9359C76.609 14.9359 76.4433 14.8409 76.2561 14.6509C76.0832 14.4462 75.9464 14.322 75.8456 14.2781C75.6727 14.1027 75.4711 13.613 75.2406 12.8091C75.0102 12.0051 74.9958 11.3473 75.1974 10.8357C75.2262 10.748 75.2622 10.6311 75.3054 10.4849C75.3342 10.3387 75.363 10.2437 75.3919 10.1998C75.4063 10.156 75.4423 10.0975 75.4999 10.0244C75.5431 9.95135 75.6151 9.88557 75.7159 9.8271C76.0328 9.63707 76.2705 9.68092 76.4289 9.95865C76.6018 10.2364 76.6162 10.4776 76.4721 10.6822C76.4289 10.7261 76.3569 10.7992 76.2561 10.9015C76.1553 11.0038 76.0688 11.0988 75.9968 11.1865C75.9248 11.2596 75.8888 11.3254 75.8888 11.3839C75.8888 11.7493 75.9248 12.1147 75.9968 12.4802C76.0832 12.8456 76.1697 13.1379 76.2561 13.3572C76.3569 13.5619 76.4361 13.6642 76.4938 13.6642C76.7818 13.6349 77.1203 13.3718 77.5092 12.8748C77.9125 12.3778 78.3014 11.7493 78.6759 10.9892L78.5031 10.8138C77.6821 10.4337 77.1779 9.73208 76.9907 8.70886C76.8322 7.24712 77.3364 6.03387 78.5031 5.06912C78.5895 4.9668 78.7047 4.87909 78.8488 4.80601C79.0072 4.7183 79.1369 4.67445 79.2377 4.67445C79.7418 4.44057 80.4116 4.32363 81.247 4.32363C81.3911 4.44057 81.5783 4.49904 81.8088 4.49904H82.2409C82.3417 4.60136 82.4497 4.66714 82.565 4.69637C82.6802 4.72561 82.8242 4.73292 82.9971 4.7183C83.1843 4.68907 83.2924 4.67445 83.3212 4.67445H83.5372C83.7677 4.90833 83.8829 5.15682 83.8829 5.41994C84.171 6.18005 84.315 6.69166 84.315 6.95477C84.315 7.33482 84.2142 7.9049 84.0126 8.66501C83.8109 9.4105 83.7101 9.92211 83.7101 10.1998C83.7101 10.3314 83.6381 10.9015 83.494 11.9101C83.35 12.9187 83.278 13.4815 83.278 13.5984C83.4364 13.4668 83.7101 13.116 84.099 12.5459C84.1854 12.429 84.3294 12.2097 84.5311 11.8882C84.7472 11.5666 84.9776 11.2304 85.2225 10.8796C85.2513 10.8503 85.2873 10.7992 85.3305 10.7261C85.3737 10.653 85.4097 10.5945 85.4385 10.5507C85.4674 10.5068 85.5034 10.463 85.5466 10.4191C85.5898 10.3606 85.6258 10.3387 85.6546 10.3533C85.6978 10.3533 85.7482 10.3679 85.8058 10.3972L85.8491 10.441C85.9067 10.4995 85.9355 10.5799 85.9355 10.6822C85.9499 10.7699 85.9283 10.8796 85.8707 11.0111C85.8274 11.128 85.7842 11.2231 85.741 11.2962C85.6978 11.3692 85.633 11.4789 85.5466 11.625L85.4169 11.8224C85.3305 11.9686 85.2009 12.1878 85.028 12.4802C84.8552 12.7579 84.6607 13.0502 84.4447 13.3572C84.2286 13.6642 83.8757 14.1466 83.386 14.8043C83.1123 15.1698 82.9755 15.5279 82.9755 15.8787L82.8026 16.2953C82.7738 16.3976 82.7378 16.4926 82.6946 16.5804C82.6514 16.6681 82.6226 16.7265 82.6082 16.7558C82.5938 16.785 82.5794 16.8362 82.565 16.9092C82.5506 16.997 82.5434 17.1066 82.5434 17.2381C82.5146 17.3112 82.4425 17.4135 82.3273 17.5451C82.2265 17.6767 82.1401 17.8521 82.068 18.0713C81.78 18.1298 81.5783 18.1298 81.4631 18.0713L80.8365 17.7424C80.8221 17.7132 80.7717 17.6182 80.6853 17.4574C80.5988 17.3112 80.5124 17.1943 80.426 17.1066C80.354 17.0189 80.2676 16.9458 80.1667 16.8873C79.9507 16.595 79.9507 16.288 80.1667 15.9664C80.2243 15.9226 80.2964 15.8568 80.3828 15.7691C80.4836 15.696 80.5484 15.6375 80.5772 15.5937C80.6061 15.5644 80.6349 15.5133 80.6637 15.4402C80.7069 15.3817 80.7285 15.3086 80.7285 15.2209C80.7285 14.9432 80.8437 14.4243 81.0742 13.6642C81.1174 13.2549 81.1894 12.641 81.2902 11.8224C81.3911 10.9892 81.4703 10.2218 81.5279 9.52013C81.5999 8.81849 81.6359 8.1534 81.6359 7.52485C81.6359 7.40791 81.6647 7.22519 81.7224 6.9767C81.78 6.71358 81.8088 6.51625 81.8088 6.38469Z" fill="#0E254B"/>
<path d="M89.9965 11.9759L89.9101 12.0636C89.9101 12.2244 89.8813 12.334 89.8237 12.3925C89.8093 12.4363 89.8309 12.4144 89.8885 12.3267C90.3206 11.625 90.8031 10.6311 91.3361 9.34472L91.5089 8.88427C91.5953 8.65039 91.6602 8.46768 91.7034 8.33612C91.7322 8.24841 91.761 8.05108 91.7898 7.74411C91.8186 7.42253 91.8402 7.21788 91.8546 7.13018C91.9122 6.92553 91.9626 6.6478 92.0059 6.29698C92.0491 5.93155 92.1283 5.61727 92.2435 5.35416C92.3299 5.19337 92.6108 5.11297 93.0861 5.11297C93.0861 5.17144 93.1366 5.20068 93.2374 5.20068C93.3526 5.31762 93.3886 5.42725 93.3454 5.52957C93.3166 5.60266 93.3094 5.66843 93.3238 5.7269C93.3382 5.77076 93.3598 5.85115 93.3886 5.96809C93.4174 6.07041 93.4318 6.15081 93.4318 6.20928L93.367 6.29698C93.3958 6.45778 93.3526 6.67704 93.2374 6.95477C93.1222 7.21788 93.0573 7.39329 93.0429 7.481C93.0285 7.58332 92.9997 7.75142 92.9565 7.9853C92.9277 8.20456 92.8989 8.37266 92.8701 8.4896C92.8557 8.54807 92.8341 8.63578 92.8053 8.75272C92.7909 8.86965 92.7693 8.95736 92.7405 9.01583C92.7261 9.32279 92.6612 9.73208 92.546 10.2437C92.4452 10.7553 92.3876 11.0477 92.3732 11.1207L92.3948 11.3839C92.4956 11.2377 92.5892 11.0696 92.6756 10.8796C93.0069 10.2802 93.2374 9.88557 93.367 9.69554C93.4246 9.46166 93.4606 9.31549 93.4751 9.25702C93.6047 9.12546 93.6695 9.01583 93.6695 8.92812C93.8423 8.46037 94.1088 7.89759 94.4689 7.23981C94.5553 7.12287 94.6706 6.93284 94.8146 6.66973C94.9586 6.40662 95.0595 6.2239 95.1171 6.12158C95.1747 6.04849 95.2683 5.93886 95.398 5.79268C95.542 5.64651 95.6428 5.52957 95.7004 5.44186C95.7149 5.44186 95.7293 5.42725 95.7437 5.39801C95.7725 5.36878 95.8013 5.35416 95.8301 5.35416C95.8877 5.25184 96.0317 5.20068 96.2622 5.20068H96.7591C96.9176 5.20068 97.0256 5.22991 97.0832 5.28838C97.1552 5.31762 97.2417 5.36147 97.3425 5.41994C97.4433 5.47841 97.5081 5.51495 97.5369 5.52957C97.7674 5.66113 97.9114 5.77807 97.9691 5.88039C98.3148 6.20197 98.502 6.59664 98.5308 7.0644C98.5452 7.29828 98.538 7.52485 98.5092 7.74411C98.5236 7.93414 98.4444 8.1534 98.2715 8.4019C98.2715 8.43113 98.2571 8.49691 98.2283 8.59923C98.2139 8.68694 98.2067 8.74541 98.2067 8.77464C98.1923 8.78926 98.1707 8.8258 98.1419 8.88427C98.1275 8.94274 98.1059 8.98659 98.0771 9.01583C98.0483 9.0743 98.0051 9.14008 97.9474 9.21316C97.9042 9.27163 97.8754 9.31549 97.861 9.34472C97.7746 9.50551 97.6738 9.62245 97.5585 9.69554C97.5297 9.69554 97.4865 9.71016 97.4289 9.73939C97.3857 9.76863 97.3353 9.78325 97.2777 9.78325C97.22 9.78325 97.1696 9.75401 97.1264 9.69554C96.9392 9.34472 96.8312 9.05968 96.8023 8.84042C96.8023 8.8258 96.8167 8.78926 96.8456 8.73079C96.8744 8.67232 96.8888 8.62116 96.8888 8.57731C97.3065 7.93414 97.5585 7.5687 97.645 7.481C97.8034 7.30559 97.8466 7.11556 97.7746 6.91092C97.7746 6.8963 97.7602 6.85976 97.7314 6.80129C97.7026 6.7282 97.6882 6.66973 97.6882 6.62588C97.5585 6.33353 97.3713 6.11427 97.1264 5.96809C96.7087 6.21659 96.4206 6.55279 96.2622 6.9767L96.1758 7.1521C96.1182 7.21057 96.0605 7.29097 96.0029 7.39329C95.9453 7.49562 95.9093 7.55408 95.8949 7.5687C95.8085 7.8172 95.7653 7.96337 95.7653 8.00723C95.7076 8.05108 95.6788 8.10224 95.6788 8.16071C95.6356 8.21918 95.614 8.27765 95.614 8.33612C95.614 8.37997 95.6068 8.44575 95.5924 8.53345C95.578 8.62116 95.5708 8.70155 95.5708 8.77464L95.6356 8.84042C95.5636 8.97198 95.4628 9.22778 95.3331 9.60784C95.3475 9.63707 95.3404 9.68092 95.3115 9.73939C95.2827 9.79786 95.2683 9.84171 95.2683 9.87095C95.2683 9.98789 95.2539 10.0683 95.2251 10.1121C95.1963 10.2291 95.1747 10.3533 95.1603 10.4849C95.1459 10.6018 95.1315 10.7188 95.1171 10.8357C95.1459 10.9234 95.1315 11.0111 95.0739 11.0988C95.0739 11.128 95.0595 11.1938 95.0307 11.2962C95.0163 11.3839 95.0091 11.4569 95.0091 11.5154C95.0811 11.5154 95.1171 11.5739 95.1171 11.6908C95.0739 11.7639 95.0523 11.932 95.0523 12.1951L95.1819 12.7214C95.2251 12.7944 95.2611 12.9114 95.2899 13.0722C95.2899 13.1306 95.3475 13.2257 95.4628 13.3572L95.4844 13.5107C95.5996 13.73 95.6788 13.8761 95.722 13.9492C95.7653 14.0808 95.8517 14.205 95.9813 14.322C96.111 14.4389 96.2406 14.4974 96.3702 14.4974C96.7015 14.4974 96.932 14.4828 97.0616 14.4535C97.2056 14.4097 97.3713 14.3 97.5585 14.1246C97.6882 14.0223 97.789 13.92 97.861 13.8177C97.9331 13.7007 98.0123 13.5399 98.0987 13.3353C98.1851 13.116 98.2427 12.9845 98.2715 12.9406C98.8045 12.0343 99.1358 11.3912 99.2654 11.0111C99.2654 10.9965 99.3158 10.8503 99.4166 10.5726C99.5319 10.2949 99.5967 10.1121 99.6111 10.0244C99.6399 10.0244 99.6759 10.0025 99.7191 9.95865C99.7623 9.90018 99.8055 9.87826 99.8488 9.89288C99.892 9.89288 99.9424 9.94404 100 10.0464C100 10.061 100 10.0975 100 10.156C100 10.2145 100 10.251 100 10.2656C100 10.3241 99.964 10.4556 99.892 10.6603C99.8344 10.8649 99.8055 10.9965 99.8055 11.055C99.8344 11.1427 99.8127 11.2304 99.7407 11.3181C99.6975 11.625 99.5463 12.122 99.287 12.8091C98.7973 13.7592 98.5236 14.2927 98.466 14.4097C97.7602 15.4475 96.968 15.9883 96.0893 16.0322C95.9885 16.0614 95.8445 16.0322 95.6572 15.9445C95.2251 15.8276 94.9298 15.696 94.7714 15.5498C94.6994 15.5498 94.6346 15.5206 94.577 15.4621C94.4761 15.389 94.3393 15.2721 94.1664 15.1113C94.008 14.9359 93.9072 14.8263 93.864 14.7824C93.7919 14.7239 93.7343 14.6216 93.6911 14.4754C93.6479 14.3293 93.6047 14.2269 93.5615 14.1685C93.5327 14.1392 93.4462 14.0296 93.3022 13.8396C93.1438 13.3572 93.0645 12.9918 93.0645 12.7433L92.9997 11.8224C92.9565 11.7785 92.9205 11.7712 92.8917 11.8005C92.8629 11.8151 92.8485 11.8443 92.8485 11.8882C92.8197 11.9612 92.7621 12.0855 92.6756 12.2609C92.6036 12.4217 92.5532 12.5533 92.5244 12.6556L92.3948 12.9187C92.3948 12.9625 92.3804 13.0283 92.3516 13.116C92.3372 13.2037 92.3299 13.2695 92.3299 13.3134C92.2867 13.5034 92.2219 13.7592 92.1355 14.0808C92.1211 14.11 92.0995 14.1685 92.0707 14.2562C92.0419 14.3439 92.0059 14.4097 91.9626 14.4535C91.9194 14.4974 91.8978 14.5485 91.8978 14.607C91.7682 14.7532 91.6746 14.9432 91.617 15.1771C91.617 15.2063 91.6097 15.2282 91.5953 15.2429C91.5809 15.2575 91.5593 15.2721 91.5305 15.2867C91.5017 15.3013 91.4801 15.3233 91.4657 15.3525H91.2929C91.1776 15.4987 91.0624 15.4987 90.9472 15.3525C90.904 15.484 90.8319 15.5718 90.7311 15.6156C90.6591 15.6887 90.5511 15.6887 90.407 15.6156C90.3638 15.6156 90.3278 15.5644 90.299 15.4621C90.3278 15.3452 90.3494 15.2136 90.3638 15.0675C90.3926 14.9213 90.407 14.8263 90.407 14.7824C90.4791 14.2562 90.5367 13.7665 90.5799 13.3134C90.7527 12.6848 90.8535 12.1878 90.8824 11.8224L91.0984 11.033C90.2486 12.6263 89.8237 13.4376 89.8237 13.4668C89.7949 13.5253 89.694 13.6788 89.5212 13.9273C89.3484 14.1758 89.2475 14.3293 89.2187 14.3877C89.0603 14.8409 88.7578 15.2502 88.3113 15.6156C87.8648 15.981 87.4254 16.1638 86.9933 16.1638C86.8061 16.1638 86.6836 16.1491 86.626 16.1199C86.4964 16.0907 86.2947 16.003 86.0211 15.8568C85.9922 15.8568 85.9634 15.8422 85.9346 15.8129C85.9058 15.7837 85.877 15.7691 85.8482 15.7691C85.8482 15.6668 85.7762 15.6156 85.6321 15.6156C85.5745 15.6156 85.5457 15.5864 85.5457 15.5279L85.697 15.3525C85.6538 15.2794 85.6249 15.1552 85.6105 14.9797C85.5961 14.7897 85.6033 14.6509 85.6321 14.5631C85.6321 14.5339 85.6466 14.417 85.6754 14.2123C85.7042 13.9931 85.733 13.803 85.7618 13.6422C85.7906 13.4815 85.8266 13.3645 85.8698 13.2914C86.1147 12.8821 86.2443 12.6556 86.2587 12.6117C86.2875 12.5533 86.3379 12.4802 86.41 12.3925C86.4964 12.3048 86.5468 12.239 86.5612 12.1951C86.6908 11.9174 86.9141 11.7274 87.231 11.625C87.3894 11.5373 87.5191 11.5373 87.6199 11.625C87.6631 11.625 87.6847 11.647 87.6847 11.6908C87.6847 11.7347 87.6703 11.8005 87.6415 11.8882C87.6127 11.9612 87.5839 12.0343 87.5551 12.1074C87.5263 12.1805 87.483 12.2682 87.4254 12.3705C87.3822 12.4729 87.3534 12.5386 87.339 12.5679C87.0653 12.9918 86.9141 13.2914 86.8853 13.4668C86.8565 13.5253 86.8061 13.613 86.734 13.73C86.662 13.8469 86.6116 13.9346 86.5828 13.9931C86.5684 14.0223 86.5324 14.1027 86.4748 14.2343C86.4316 14.3512 86.3956 14.4462 86.3668 14.5193C86.3523 14.5778 86.3307 14.6582 86.3019 14.7605C86.2875 14.8628 86.2875 14.9505 86.3019 15.0236C86.3307 15.0967 86.3739 15.1552 86.4316 15.199C86.4892 15.199 86.5324 15.1698 86.5612 15.1113C86.6908 14.9944 86.8205 14.8482 86.9501 14.6728C87.1085 14.4828 87.2886 14.1466 87.4902 13.6642C87.6055 13.4449 87.7135 13.211 87.8143 12.9625C87.9296 12.714 88.016 12.5094 88.0736 12.3486C88.1312 12.1878 88.2032 11.9466 88.2897 11.625C88.3761 11.3035 88.4337 11.0915 88.4625 10.9892C88.4913 10.8869 88.5489 10.6384 88.6354 10.2437C88.7218 9.8344 88.7722 9.60783 88.7866 9.56398C88.8298 9.34472 88.8658 8.70886 88.8946 7.65641C88.8946 7.37867 88.8586 7.13018 88.7866 6.91092C88.7146 6.69166 88.621 6.5601 88.5057 6.51625C88.3905 6.45778 88.2753 6.46509 88.16 6.53817C88.1024 6.58202 88.0448 6.62588 87.9872 6.66973C87.944 6.71358 87.9008 6.75013 87.8575 6.77936C87.8287 6.8086 87.7927 6.85245 87.7495 6.91092C87.7063 6.95477 87.6703 6.99131 87.6415 7.02055C87.6271 7.04978 87.5983 7.10094 87.5551 7.17403C87.5119 7.24712 87.483 7.29828 87.4686 7.32752C87.4542 7.35675 87.4182 7.42253 87.3606 7.52485C87.3174 7.61255 87.2814 7.67833 87.2526 7.72219C87.2382 7.75142 87.195 7.83182 87.1229 7.96337C87.0653 8.09493 87.0221 8.18994 86.9933 8.24841C86.9357 8.33612 86.8637 8.49691 86.7773 8.73079C86.6908 8.96467 86.6188 9.12546 86.5612 9.21316C86.5756 9.31549 86.4964 9.43243 86.3235 9.56398C86.3091 9.62245 86.2731 9.71016 86.2155 9.8271C86.1579 9.92942 86.1219 10.0098 86.1075 10.0683C86.1507 10.1121 86.1075 10.2875 85.9778 10.5945C85.8626 10.8869 85.7186 11.1646 85.5457 11.4277C85.3729 11.6908 85.2577 11.7858 85.2 11.7127C85.128 11.6543 85.0848 11.5958 85.0704 11.5373C85.056 11.4643 85.056 11.4131 85.0704 11.3839C85.0704 11.34 85.092 11.2669 85.1352 11.1646C85.1784 11.0623 85.2072 10.9819 85.2216 10.9234C85.4953 10.2656 85.697 9.75401 85.8266 9.38857C86.2011 8.29227 86.5036 7.58332 86.734 7.26174C86.8349 7.07171 86.9213 6.88168 86.9933 6.69166C87.0797 6.48701 87.159 6.31891 87.231 6.18735C87.3174 6.0558 87.447 5.90231 87.6199 5.7269C88.0088 5.31762 88.4121 5.0545 88.8298 4.93756C88.8874 4.90833 88.981 4.8864 89.1107 4.87178C89.2403 4.84255 89.3339 4.81331 89.3916 4.78408H89.478C89.3916 4.81331 89.3988 4.84255 89.4996 4.87178C89.5428 4.87178 89.5716 4.8864 89.586 4.91564C89.6004 4.94487 89.6436 4.95949 89.7156 4.95949C89.9749 5.07643 90.1622 5.26646 90.2774 5.52957C90.407 5.70498 90.4718 5.82192 90.4718 5.88039C90.6447 6.18735 90.7455 6.52356 90.7743 6.88899C90.8175 7.4006 90.8319 7.68564 90.8175 7.74411C90.8463 7.97799 90.8319 8.17533 90.7743 8.33612C90.7743 8.52614 90.7455 8.67232 90.6879 8.77464L90.7095 9.01583C90.6951 9.13277 90.6519 9.35934 90.5799 9.69554C90.5223 10.0171 90.4863 10.2656 90.4718 10.441C90.4142 10.8649 90.3062 11.1792 90.1478 11.3839C90.1045 11.4716 90.0829 11.6177 90.0829 11.8224L89.9965 11.9759Z" fill="#0E254B"/>
</svg>
