<svg width="147" height="37" viewBox="0 0 147 37" fill="none" xmlns="http://www.w3.org/2000/svg">
<path d="M2.90609 17.25C2.90609 17.1425 2.87433 17.0244 2.8108 16.8954C2.74728 16.7665 2.66259 16.6268 2.55672 16.4764C2.45085 16.3045 2.37674 16.1756 2.3344 16.0896V16.4764C2.20736 16.8632 2.14383 17.4434 2.14383 18.2169C2.08031 18.4103 2.01679 18.7004 1.95327 19.0872C1.88975 19.4739 1.82623 19.764 1.76271 19.9574V21.1177L1.57214 21.5045C1.57214 21.8913 1.50862 22.1492 1.38158 22.2781C1.31806 22.2781 1.25454 22.3103 1.19102 22.3748C1.1275 22.4392 1.05339 22.5252 0.968695 22.6326C0.905174 22.7401 0.85224 22.8153 0.809893 22.8582C0.746372 22.8582 0.65109 22.826 0.524048 22.7616C0.397006 22.6971 0.301725 22.6649 0.238204 22.6649C0.132335 22.5574 0.0582276 22.4285 0.0158803 22.2781C-0.00529342 22.1277 -0.00529342 21.9128 0.0158803 21.6334C0.0370539 21.3541 0.0476408 21.1822 0.0476408 21.1177V20.3442C0.0476408 20.1508 0.0794013 19.8285 0.142922 19.3772C0.206443 18.926 0.238204 18.6037 0.238204 18.4103C0.301725 18.088 0.365246 17.6045 0.428767 16.9599C0.492288 16.3153 0.555809 15.8318 0.61933 15.5095C0.873414 14.4781 1.00046 13.7045 1.00046 13.1888C1.25454 12.1574 1.38158 11.4483 1.38158 11.0615C1.38158 10.8681 1.41334 10.6103 1.47686 10.288C1.54038 9.96566 1.57214 9.70781 1.57214 9.51442C1.63567 9.32103 1.69919 9.03095 1.76271 8.64417C1.82623 8.25739 1.88975 7.96731 1.95327 7.77392C1.95327 7.51607 2.01679 7.32268 2.14383 7.19376V7.00037C2.14383 6.48466 2.27088 5.71111 2.52496 4.6797C2.52496 4.48631 2.55672 4.19623 2.62024 3.80945C2.68376 3.42267 2.71552 3.13259 2.71552 2.9392C2.96961 2.16565 3.09665 1.64994 3.09665 1.39209C3.28721 1.00531 3.5413 0.811925 3.8589 0.811925L4.04946 0.618537C4.07064 0.640024 4.1024 0.672256 4.14475 0.715232C4.20827 0.758207 4.24003 0.790438 4.24003 0.811925C4.2612 0.811925 4.28237 0.833413 4.30355 0.876389C4.32472 0.919364 4.32472 0.973083 4.30355 1.03755C4.30355 1.08052 4.28237 1.13424 4.24003 1.1987C4.36707 1.1987 4.43059 1.26317 4.43059 1.39209C4.30355 1.64994 4.24003 2.03672 4.24003 2.55242C4.17651 2.68135 4.11299 2.90697 4.04946 3.22929C3.98594 3.5516 3.92242 3.77722 3.8589 3.90615L3.28721 7.38714C3.28721 7.64499 3.25545 8.03177 3.19193 8.54748C3.12841 9.06318 3.09665 9.44996 3.09665 9.70781C2.96961 10.0946 2.90609 10.6748 2.90609 11.4483V11.8351C2.99078 11.8351 3.04371 11.8351 3.06489 11.8351C3.08606 11.8136 3.09665 11.7491 3.09665 11.6417C3.16017 11.6417 3.22369 11.6095 3.28721 11.545C3.35073 11.4805 3.41425 11.4483 3.47778 11.4483C4.04946 10.4814 4.68467 9.64335 5.38341 8.93425C6.65382 7.38714 7.73368 6.16235 8.62298 5.25987L11.2909 2.55242C11.2909 2.44499 11.3332 2.35904 11.4179 2.29457C11.5026 2.20862 11.5873 2.16565 11.672 2.16565C11.9261 1.64994 12.2437 1.58548 12.6248 1.97226C13.0059 2.10118 13.3235 2.55242 13.5776 3.32598C13.5776 3.90615 13.3871 4.48631 13.0059 5.06648C13.0059 5.13094 12.9742 5.22764 12.9106 5.35656C12.8471 5.48549 12.8154 5.58218 12.8154 5.64664C12.8154 5.71111 12.7942 5.76483 12.7518 5.8078C12.7307 5.82929 12.7095 5.84003 12.6883 5.84003H12.6248C12.5401 5.96896 12.4131 6.17309 12.2437 6.45243C12.0955 6.71028 11.9578 6.9359 11.8308 7.12929C11.7037 7.32268 11.5873 7.47309 11.4814 7.58053C11.3544 7.70946 11.1956 7.90285 11.005 8.1607C10.8145 8.41855 10.6556 8.61194 10.5286 8.74086L9.0041 10.288C8.96176 10.3309 8.89823 10.3739 8.81354 10.4169C8.75002 10.4599 8.69708 10.5029 8.65474 10.5458C8.63356 10.5673 8.62298 10.6103 8.62298 10.6748C8.51711 10.7392 8.43241 10.8037 8.36889 10.8681C8.30537 10.9326 8.24185 11.0078 8.17833 11.0938C8.13598 11.1582 8.09363 11.2119 8.05129 11.2549C7.98777 11.3194 7.89248 11.3838 7.76544 11.4483C7.6384 11.5128 7.54312 11.5772 7.4796 11.6417L6.90791 12.2219C6.86556 12.2219 6.77028 12.2756 6.62206 12.383C6.49502 12.469 6.39974 12.4797 6.33622 12.4153L6.14566 12.6086C6.14566 12.7376 6.20918 12.8665 6.33622 12.9954C6.33622 13.0599 6.36798 13.1243 6.4315 13.1888C6.49502 13.2533 6.52678 13.3177 6.52678 13.3822L7.67016 14.5425C7.90307 14.7144 8.1254 14.9186 8.33713 15.1549C8.57004 15.3698 8.82413 15.6384 9.09938 15.9607C9.37464 16.2615 9.59696 16.4979 9.76635 16.6698C9.82987 16.7343 9.92516 16.8632 10.0522 17.0566C10.1792 17.25 10.2745 17.3789 10.338 17.4434C10.5286 17.6367 10.7298 17.9591 10.9415 18.4103C11.1532 18.8615 11.3544 19.1839 11.5449 19.3772C12.0108 19.85 12.3284 20.4301 12.4978 21.1177C12.7518 21.6334 12.8789 22.0847 12.8789 22.4715C12.773 22.5359 12.6566 22.5682 12.5295 22.5682C12.4025 22.5682 12.2543 22.5467 12.0849 22.5037C11.9367 22.4822 11.8202 22.4715 11.7355 22.4715H11.5449C11.4814 22.407 11.3332 22.3425 11.1003 22.2781C10.8674 22.2136 10.698 22.1492 10.5921 22.0847C10.338 21.8268 10.1475 21.6979 10.0204 21.6979C9.87222 21.6979 9.74518 21.6657 9.63931 21.6012C9.55462 21.5368 9.4911 21.5045 9.44875 21.5045C9.36405 21.5045 9.31112 21.5045 9.28995 21.5045C9.26877 21.483 9.25819 21.4186 9.25819 21.3111C9.13114 21.1822 8.87706 21.1177 8.49593 21.1177C8.43241 21.0533 8.3583 20.9888 8.27361 20.9244C8.18892 20.8599 8.11481 20.7954 8.05129 20.731C7.98777 20.6665 7.90307 20.6343 7.7972 20.6343C7.71251 20.6343 7.67016 20.602 7.67016 20.5376C7.54312 20.4087 7.35256 20.3442 7.09847 20.3442H6.90791C6.90791 20.2797 6.87615 20.2153 6.81263 20.1508C6.74911 20.0863 6.66441 20.0219 6.55854 19.9574C6.45267 19.8715 6.37857 19.807 6.33622 19.764C5.76453 19.5706 5.31988 19.3128 5.00228 18.9905C4.87524 18.926 4.68467 18.8078 4.43059 18.6359C4.19768 18.4425 4.0177 18.3136 3.89066 18.2491C3.53071 18.0128 3.20252 17.6797 2.90609 17.25Z" fill="white"/>
<path d="M21.6887 24.2442L22.3557 24.4054C22.271 24.5558 21.9216 24.8244 21.3076 25.2111C20.6935 25.6194 20.3442 25.9202 20.2595 26.1136C20.0689 26.4144 19.8678 26.683 19.656 26.9194C19.4443 27.1773 19.2749 27.4029 19.1479 27.5963C19.0208 27.8111 18.9044 28.1227 18.7985 28.531L18.0998 29.9169C18.2268 30.6475 18.195 31.4103 18.0045 32.2054C17.9198 32.2698 17.8986 32.3773 17.941 32.5277C18.0045 32.6996 18.0362 32.8178 18.0362 32.8822C18.0786 33.0112 18.0998 33.1401 18.0998 33.269C18.0362 33.355 18.0786 33.5269 18.2268 33.7847C18.375 34.0426 18.5126 34.2145 18.6397 34.3004C18.8938 34.3434 19.1479 34.3219 19.4019 34.2359C19.656 34.15 19.8995 33.9888 20.1324 33.7525C20.3865 33.5376 20.5771 33.3442 20.7041 33.1723C20.8523 33.0219 21.0429 32.7855 21.2758 32.4632C21.5087 32.1624 21.6464 31.9797 21.6887 31.9153C21.7522 31.8078 21.8157 31.6145 21.8793 31.3351C21.964 31.0773 22.0275 30.8946 22.0698 30.7872C22.4086 30.3789 22.5462 30.0459 22.4827 29.788C22.6944 29.1434 22.8215 28.7351 22.8638 28.5632C23.1179 27.7467 23.1709 26.9624 23.0226 26.2103C23.0438 26.0599 23.1073 25.8021 23.2132 25.4368C23.3191 25.093 23.372 24.8351 23.372 24.6632C23.3932 24.4913 23.3508 24.2012 23.245 23.793C23.2238 23.5781 23.2238 23.0516 23.245 22.2136C23.2873 21.3541 23.3085 20.7847 23.3085 20.5053C23.3085 20.4409 23.2556 19.9144 23.1497 18.926C23.0438 17.9161 22.9803 17.0888 22.9591 16.4442C22.6839 17.8839 22.5462 18.6359 22.5462 18.7004C22.5039 19.0442 22.3133 19.5277 21.9745 20.1508C21.6358 20.7525 21.4452 21.107 21.4029 21.2144C21.4452 21.4723 21.1805 22.031 20.6088 22.8905C20.0372 23.7715 19.6243 24.2979 19.3702 24.4698C19.222 24.6202 19.042 24.6954 18.8303 24.6954C18.3433 24.8029 17.941 24.8781 17.6234 24.9211C17.3269 24.964 16.967 24.9748 16.5435 24.9533C16.12 24.9533 15.7601 24.8459 15.4636 24.631C15.1672 24.4376 14.9237 24.1368 14.7332 23.7285C14.6908 23.6211 14.6167 23.4599 14.5108 23.245C14.405 23.0301 14.3203 22.8475 14.2567 22.6971C14.1932 22.5682 14.1297 22.4177 14.0662 22.2458C14.0027 22.0739 13.9497 21.9128 13.9074 21.7624C13.8862 21.5905 13.8862 21.4293 13.9074 21.2789C13.9286 21.0211 13.8968 20.5376 13.8121 19.8285C13.7062 19.0979 13.6639 18.5929 13.6851 18.3136C13.7062 17.9483 13.7486 17.5723 13.8121 17.1855C13.8544 16.7987 13.8862 16.4764 13.9074 16.2186C13.9286 15.9607 13.9286 15.6277 13.9074 15.2194C13.9074 15.0045 13.9709 14.4566 14.0979 13.5756C14.2462 12.6731 14.4897 11.588 14.8284 10.3202C15.1672 9.03095 15.5589 8.064 16.0036 7.41938C16.4059 7.14004 16.66 6.98962 16.7658 6.96813C16.914 6.8607 17.1999 6.88218 17.6234 7.0326C18.0468 7.16152 18.3327 7.29045 18.4809 7.41938C18.5656 7.48384 18.6609 7.5483 18.7667 7.61276C18.8938 7.67723 18.9679 7.73095 18.9891 7.77392C19.0314 7.79541 19.0738 7.83838 19.1161 7.90285C19.1584 7.96731 19.1796 8.04252 19.1796 8.12847C19.3278 8.53673 19.1584 9.54665 18.6715 11.1582C18.1845 12.7483 17.9515 13.7367 17.9727 14.1235C18.0151 14.3814 17.9727 14.8004 17.8457 15.3805C17.7186 15.9607 17.6657 16.3797 17.6869 16.6376C17.3693 19.4954 17.401 21.5582 17.7822 22.826C17.9304 23.3632 18.2162 23.6318 18.6397 23.6318C18.9996 23.3739 19.3384 22.8475 19.656 22.0525C19.9948 21.2359 20.196 20.5913 20.2595 20.1186C20.4712 19.2591 20.8206 17.0781 21.3076 13.5756C21.4346 13.0384 21.5087 12.383 21.5299 11.6095C21.4664 10.9004 21.5828 9.9764 21.8793 8.83756C22.1969 8.66566 22.6415 8.59045 23.2132 8.61194C23.7849 8.61194 24.2931 8.65491 24.7377 8.74086C24.9706 8.91277 25.0977 9.13839 25.1188 9.41773C25.1612 9.69706 25.1506 10.1805 25.0871 10.8681C25.1294 11.083 25.1188 11.7706 25.0553 12.931C24.9918 14.0913 25.0236 14.7789 25.1506 14.9938C25.2141 15.3376 25.1824 15.6921 25.0553 16.0574C24.9494 16.4012 24.9706 16.745 25.1188 17.0888C25.2247 17.2822 25.2459 17.5401 25.1824 17.8624C25.1188 18.1847 25.14 18.4425 25.2459 18.6359C25.267 18.7648 25.267 18.883 25.2459 18.9905C25.2459 19.0764 25.2459 19.1624 25.2459 19.2483C25.2459 19.3128 25.2776 19.3665 25.3412 19.4095L25.4047 20.731C25.4894 20.9029 25.5423 21.107 25.5635 21.3434C25.5847 21.5582 25.5952 21.8053 25.5952 22.0847C25.6164 22.3425 25.627 22.493 25.627 22.5359C25.754 22.8582 25.7752 23.0946 25.6905 23.245C25.6058 23.3954 25.6164 23.6211 25.7223 23.9219C25.8917 24.2657 25.9128 24.5235 25.7858 24.6954C25.6799 24.8888 25.6482 25.1682 25.6905 25.5335L25.7858 26.0492C25.8917 26.1351 25.934 26.5434 25.9128 27.274C25.8917 28.026 25.8282 28.4558 25.7223 28.5632C25.6799 29.6161 25.5211 30.4111 25.2459 30.9483C25.0977 31.6145 24.9177 32.0872 24.7059 32.3665C24.6424 32.5169 24.5154 32.7533 24.3248 33.0756C24.1554 33.3979 24.0284 33.6343 23.9437 33.7847C23.6684 34.193 23.4038 34.4831 23.1497 34.655C23.0438 34.7194 22.9062 34.8483 22.7368 35.0417C22.5674 35.2566 22.4192 35.407 22.2921 35.493C22.2498 35.5359 22.1863 35.6112 22.1016 35.7186C22.0169 35.826 21.964 35.8905 21.9428 35.912C21.9216 35.955 21.8793 36.0087 21.8157 36.0731C21.7522 36.1591 21.6993 36.2128 21.6569 36.2343C21.6146 36.2558 21.5511 36.2773 21.4664 36.2988C21.4029 36.3417 21.3287 36.374 21.2441 36.3955C21.1594 36.4169 21.0641 36.4277 20.9582 36.4277C20.7676 36.5566 20.4712 36.6426 20.0689 36.6855L19.6878 36.75C19.1796 36.75 18.6397 36.5029 18.068 36.0087C17.4963 35.5145 17.1469 34.9988 17.0199 34.4616C16.6811 34.0103 16.4694 33.3872 16.3847 32.5921C16.3 31.8186 16.3847 31.1202 16.6388 30.4971C16.8082 29.788 16.9246 29.326 16.9881 29.1111C17.0728 28.9178 17.2952 28.531 17.6551 27.9508C17.9092 27.3921 18.5021 26.6616 19.4337 25.7591C20.3653 24.8781 21.117 24.3731 21.6887 24.2442Z" fill="white"/>
<path d="M37.0332 10.9326C37.0332 10.8681 37.0015 10.8037 36.938 10.7392C36.8744 10.6748 36.8427 10.6103 36.8427 10.5458C36.7368 10.6103 36.6309 10.6962 36.5251 10.8037C36.4404 10.8896 36.3557 10.9863 36.271 11.0938C36.1863 11.2012 36.1228 11.2764 36.0804 11.3194C35.5723 11.964 35.0641 12.931 34.5559 14.2202C34.0901 14.8648 33.709 15.5524 33.4125 16.283C33.0314 17.2715 32.7244 18.3351 32.4915 19.4739C32.3644 19.9896 32.2692 20.4194 32.2056 20.7632C32.1421 21.0855 32.0998 21.3541 32.0786 21.569C32.0786 21.7839 32.0574 22.1492 32.0151 22.6649C31.9939 23.202 31.9516 23.7822 31.888 24.4054C31.8245 24.964 31.8245 26.1029 31.888 27.8219C31.9727 29.5624 32.0363 31.0021 32.0786 32.1409C32.1209 33.3012 32.0574 34.1607 31.888 34.7194C31.634 34.7194 31.5069 34.7839 31.5069 34.9128C31.4434 34.9773 31.3481 35.0095 31.2211 35.0095C31.094 35.0095 30.9987 35.0417 30.9352 35.1062C30.5541 35.1062 30.3 35.0417 30.173 34.9128C30.1095 34.9128 30.0142 34.8806 29.8871 34.8161C29.7601 34.7517 29.6648 34.7194 29.6013 34.7194C29.3472 34.5905 29.0931 34.3971 28.839 34.1393C28.7332 33.8599 28.6802 33.312 28.6802 32.4955C28.6802 31.6789 28.7332 31.131 28.839 30.8516V29.8847C28.839 29.5194 28.8284 29.1756 28.8073 28.8533C28.7861 28.531 28.7755 28.1335 28.7755 27.6607V26.1136C28.8179 25.9847 28.8496 25.8665 28.8708 25.7591C28.892 25.6516 28.892 25.5657 28.8708 25.5012C28.8708 25.4368 28.8602 25.3401 28.839 25.2111C28.839 25.0822 28.839 24.964 28.839 24.8566C28.9026 24.5987 28.9343 24.2227 28.9343 23.7285C28.9343 23.2558 28.9661 22.9227 29.0296 22.7293C29.0931 20.9673 29.1778 19.3665 29.2837 17.9268C29.3895 16.4872 29.4425 15.5739 29.4425 15.1872V14.2202C29.5695 13.9624 29.633 13.4467 29.633 12.6731L29.7918 11.7062C29.7283 11.6417 29.7283 11.2227 29.7918 10.4491C28.6061 13.6078 27.738 15.6491 27.1875 16.5731C27.0181 16.9384 26.8381 17.164 26.6476 17.25C26.4782 17.164 26.3829 17.0029 26.3617 16.7665C26.3194 16.5301 26.3511 16.369 26.457 16.283C26.584 16.0252 26.7746 15.5095 27.0287 14.7359C27.3039 13.9409 27.5051 13.4144 27.6321 13.1566C27.6957 13.0276 27.8756 12.5872 28.1721 11.8351C28.4897 11.0615 28.6802 10.6103 28.7437 10.4814C28.8073 10.3524 28.9026 10.0409 29.0296 9.54665C29.1778 9.05243 29.2837 8.74086 29.3472 8.61194C29.3472 8.3326 29.4637 7.99954 29.6966 7.61276C29.9295 7.22599 30.1518 6.97888 30.3635 6.87144C30.9776 6.87144 31.5281 7.01111 32.0151 7.29045C32.5233 7.5483 32.7879 7.85987 32.8091 8.22516C32.7032 8.5045 32.6291 8.73012 32.5868 8.90202C32.5656 9.07392 32.5444 9.26731 32.5232 9.48219C32.5021 9.69707 32.4703 9.92268 32.428 10.159C32.428 10.8037 32.3644 11.3194 32.2374 11.7062L32.0786 12.6731C32.0363 12.9739 32.0045 13.4574 31.9833 14.1235C31.9621 14.7681 31.9198 15.2946 31.8563 15.7029C31.7716 16.3045 31.7292 16.7235 31.7292 16.9599C31.8139 16.7235 31.9092 16.3797 32.0151 15.9285C32.1421 15.4558 32.2586 15.0475 32.3644 14.7037C32.4915 14.3599 32.6503 14.0053 32.8409 13.64C33.2643 12.3723 33.836 11.2764 34.5559 10.3524C34.683 10.288 34.8418 10.159 35.0323 9.96566C35.2229 9.77227 35.3817 9.64335 35.5087 9.57888C36.3769 8.91277 37.2026 8.78384 37.986 9.19211L38.1766 9.38549C38.2613 9.47145 38.4095 9.60037 38.6213 9.77227C38.833 9.92268 39.013 10.0838 39.1612 10.2557C39.3306 10.4062 39.447 10.5673 39.5106 10.7392C39.5106 11.126 39.5741 11.3838 39.7011 11.5128V11.8995C39.7646 12.1359 39.7964 12.383 39.7964 12.6409C39.7964 12.8987 39.7752 13.1888 39.7329 13.5111C39.7117 13.8119 39.7011 14.0483 39.7011 14.2202L39.32 15.9607V16.9277C39.193 17.0566 39.1294 17.3144 39.1294 17.7012C39.447 17.3144 39.7435 16.7987 40.0187 16.1541C40.3152 15.488 40.5904 14.9615 40.8445 14.5748C40.908 14.6177 40.9821 14.6607 41.0668 14.7037C41.1727 14.7252 41.2574 14.7574 41.3209 14.8004C41.3844 14.8434 41.4162 14.8971 41.4162 14.9615C41.4162 15.4558 41.2786 15.8425 41.0033 16.1219C40.1987 17.583 39.4259 18.6896 38.6848 19.4417C38.6848 19.4632 38.6636 19.5599 38.6213 19.7318C38.5789 19.9037 38.5472 20.0541 38.526 20.183C38.2507 21.2789 37.9755 22.0417 37.7002 22.4715C37.3614 23.1591 37.1285 23.6963 37.0015 24.083C36.7474 24.5987 36.3133 25.1682 35.6993 25.7913C35.1276 26.3715 34.6194 26.5111 34.1748 26.2103C33.9207 26.2103 33.7301 26.1459 33.6031 26.0169C33.4549 26.0169 33.3067 25.9202 33.1585 25.7268C33.0102 25.5335 32.8832 25.4153 32.7773 25.3723C32.7138 25.3078 32.6821 25.1897 32.6821 25.0178C32.6821 24.8459 32.6926 24.6525 32.7138 24.4376C32.7562 24.2227 32.7773 24.1045 32.7773 24.083C32.9891 23.3739 33.1796 22.8797 33.349 22.6004C33.5819 22.2781 33.7301 22.0632 33.7937 21.9558C34.0901 21.3971 34.7041 20.688 35.6358 19.8285C36.6098 16.8417 37.0756 13.8764 37.0332 10.9326ZM34.1113 22.8582C33.8572 23.3739 33.7513 23.6533 33.7937 23.6963C33.7937 23.7607 33.8678 23.793 34.016 23.793C34.3124 23.3417 34.5347 22.9012 34.683 22.4715C34.9582 21.7194 35.117 21.2896 35.1594 21.1822C34.5242 21.9987 34.1748 22.5574 34.1113 22.8582Z" fill="white"/>
<path d="M52.9693 14.188C53.0117 14.2095 53.0434 14.2524 53.0646 14.3169C53.0858 14.3814 53.0858 14.4673 53.0646 14.5748C53.0646 14.6822 53.0328 14.8004 52.9693 14.9293C52.9058 14.9938 52.747 15.2946 52.4929 15.8318C52.2388 16.3475 52.08 16.6376 52.0165 16.702C51.9318 16.9599 51.6354 17.4756 51.1272 18.2491C51.1272 18.5929 50.852 19.0442 50.3014 19.6029C50.3014 19.7318 50.1744 19.9252 49.9203 20.183L49.5392 20.9566C49.2851 21.2144 49.1581 21.4078 49.1581 21.5368C49.1581 21.8376 48.9463 22.1384 48.5228 22.4392C48.0994 22.7401 47.8029 22.7615 47.6336 22.5037C47.5065 22.5037 47.443 22.4392 47.443 22.3103C47.1889 22.0525 46.9348 21.8591 46.6807 21.7301C46.596 21.7301 46.5113 21.6657 46.4267 21.5368C46.342 21.3863 46.2996 21.2574 46.2996 21.15V20.7632C46.4267 20.1186 46.4902 19.2806 46.4902 18.2491V17.8624L46.2996 18.0558C46.1726 18.3136 45.982 18.5715 45.7279 18.8293C45.7279 19.0872 45.6009 19.345 45.3468 19.6029C45.3045 19.6458 45.2409 19.721 45.1562 19.8285C45.0715 19.9359 44.9763 20.0434 44.8704 20.1508C44.7857 20.2368 44.6904 20.312 44.5845 20.3764C44.0129 20.7632 43.4094 20.9136 42.7742 20.8277C42.1602 20.7202 41.6202 20.3764 41.1544 19.7963C40.8792 19.5169 40.6251 19.0979 40.3922 18.5392C40.1592 17.9591 40.0428 17.4756 40.0428 17.0888C39.9581 16.6161 39.9687 16.0252 40.0746 15.3161C40.1804 14.5855 40.3286 14.0161 40.5192 13.6078C40.7098 12.8772 40.8686 12.3615 40.9956 12.0607C41.1227 11.7599 41.3873 11.2442 41.7896 10.5136C42.3825 9.52516 42.9542 8.6764 43.5047 7.96731C43.5682 7.90285 43.7588 7.75243 44.0764 7.51607C44.4152 7.25822 44.6163 7.09706 44.6798 7.0326C44.7857 6.92516 45.0292 6.81772 45.4103 6.71028C45.8126 6.60284 46.0561 6.57061 46.1408 6.61359C46.4161 6.72103 46.6066 6.77475 46.7125 6.77475C47.6018 6.98962 48.1311 7.45161 48.3005 8.1607C48.237 8.1607 48.0994 8.18219 47.8876 8.22516C47.6971 8.24665 47.57 8.25739 47.5065 8.25739C47.4006 8.25739 47.1995 8.36483 46.9031 8.57971C46.6278 8.79458 46.4902 8.945 46.4902 9.03095C46.4478 9.07392 46.3525 9.17062 46.2043 9.32103C46.0561 9.44996 45.9502 9.55739 45.8867 9.64335C45.8232 9.70781 45.7491 9.81525 45.6644 9.96566C45.6009 10.0946 45.5691 10.2235 45.5691 10.3524L45.1562 10.9004C44.9445 11.1152 44.7222 11.5235 44.4893 12.1252C44.2564 12.7268 44.0976 13.0921 44.0129 13.221C44.0129 13.35 43.8858 13.5434 43.6317 13.8012C43.5682 13.9946 43.4412 14.3491 43.2506 14.8648C43.06 15.3805 42.933 15.7351 42.8695 15.9285C42.8695 16.4442 42.7424 16.7665 42.4883 16.8954C42.4883 17.0888 42.4672 17.4111 42.4248 17.8624C42.3825 18.2921 42.4037 18.55 42.4883 18.6359C42.4883 18.8078 42.626 18.9475 42.9012 19.0549C43.1765 19.1409 43.3565 19.1301 43.4412 19.0227C43.6953 18.8938 43.9493 18.7004 44.2034 18.4425C44.4363 18.1632 44.6375 17.8624 44.8069 17.5401C44.9974 17.2177 45.2198 16.8095 45.4738 16.3153C45.7279 15.821 45.9397 15.4343 46.109 15.1549C46.3631 14.8971 46.4902 14.4458 46.4902 13.8012L46.6807 13.4144C46.6807 13.1781 46.6913 12.9847 46.7125 12.8343C46.7548 12.6838 46.8184 12.5119 46.9031 12.3186C46.9878 12.1037 47.0407 11.9533 47.0619 11.8673C47.1889 11.6095 47.2524 11.2227 47.2524 10.707C47.2524 10.5136 47.2842 10.2235 47.3477 9.83673C47.4112 9.44996 47.443 9.15987 47.443 8.96648C47.9088 8.64417 48.417 8.57971 48.9675 8.7731C49.0945 8.90202 49.2851 8.96648 49.5392 8.96648C49.5604 8.98797 49.6133 9.04169 49.698 9.12764C49.8039 9.19211 49.8568 9.24582 49.8568 9.2888C49.878 9.31029 49.9097 9.37475 49.9521 9.48219C50.0156 9.58963 50.005 9.67558 49.9203 9.74004C50.005 9.86897 50.0685 10.0194 50.1109 10.1913C50.1532 10.3417 50.1638 10.4814 50.1426 10.6103C50.1426 10.7177 50.132 10.8681 50.1109 11.0615C50.1109 11.2549 50.1109 11.3946 50.1109 11.4805L49.5392 14.3814V14.9615C49.5392 15.3483 49.5074 15.9715 49.4439 16.831C49.3804 17.669 49.3486 18.2706 49.3486 18.6359V19.4095C49.391 19.388 49.5815 19.1301 49.9203 18.6359C50.2167 18.2062 50.619 17.5078 51.1272 16.5409C51.6354 15.5739 52.0271 14.8756 52.3023 14.4458C52.3023 14.2739 52.5247 14.188 52.9693 14.188Z" fill="white"/>
<path d="M58.4145 17.6045L58.2875 17.7334C58.2875 17.9698 58.2451 18.131 58.1604 18.2169C58.1393 18.2814 58.171 18.2491 58.2557 18.1202C58.8909 17.0888 59.6002 15.6277 60.3837 13.7367L60.6377 13.0599C60.7648 12.7161 60.8601 12.4475 60.9236 12.2541C60.9659 12.1252 61.0083 11.8351 61.0506 11.3838C61.093 10.9111 61.1247 10.6103 61.1459 10.4814C61.2306 10.1805 61.3047 9.77227 61.3682 9.25657C61.4318 8.71938 61.5482 8.25739 61.7176 7.87062C61.8446 7.63425 62.2575 7.51607 62.9563 7.51607C62.9563 7.60202 63.0304 7.645 63.1786 7.645C63.348 7.8169 63.4009 7.97805 63.3374 8.12847C63.295 8.2359 63.2844 8.3326 63.3056 8.41855C63.3268 8.48301 63.3586 8.60119 63.4009 8.7731C63.4433 8.92351 63.4644 9.04169 63.4644 9.12764L63.3691 9.25657C63.4115 9.49293 63.348 9.81525 63.1786 10.2235C63.0092 10.6103 62.9139 10.8681 62.8927 10.9971C62.8716 11.1475 62.8292 11.3946 62.7657 11.7384C62.7233 12.0607 62.681 12.3078 62.6387 12.4797C62.6175 12.5657 62.5857 12.6946 62.5434 12.8665C62.5222 13.0384 62.4904 13.1673 62.4481 13.2533C62.4269 13.7045 62.3316 14.3062 62.1622 15.0582C62.014 15.8103 61.9293 16.2401 61.9082 16.3475L61.9399 16.7343C62.0881 16.5194 62.2258 16.2723 62.3528 15.9929C62.8398 15.1119 63.1786 14.5318 63.3691 14.2524C63.4538 13.9086 63.5068 13.6938 63.5279 13.6078C63.7185 13.4144 63.8138 13.2533 63.8138 13.1243C64.0679 12.4367 64.4596 11.6095 64.9889 10.6425C65.116 10.4706 65.2854 10.1913 65.4971 9.8045C65.7088 9.41773 65.8571 9.14913 65.9417 8.99872C66.0264 8.89128 66.1641 8.73012 66.3546 8.51524C66.5664 8.30037 66.7146 8.12847 66.7993 7.99954C66.8204 7.99954 66.8416 7.97805 66.8628 7.93508C66.9052 7.8921 66.9475 7.87062 66.9898 7.87062C67.0745 7.7202 67.2863 7.645 67.6251 7.645H68.3555C68.5885 7.645 68.7473 7.68797 68.8319 7.77392C68.9378 7.8169 69.0649 7.88136 69.2131 7.96731C69.3613 8.05326 69.4566 8.10698 69.4989 8.12847C69.8377 8.32186 70.0494 8.49376 70.1341 8.64417C70.6423 9.1169 70.9176 9.69706 70.9599 10.3847C70.9811 10.7285 70.9705 11.0615 70.9281 11.3838C70.9493 11.6632 70.8329 11.9855 70.5788 12.3508C70.5788 12.3938 70.5576 12.4905 70.5153 12.6409C70.4941 12.7698 70.4835 12.8557 70.4835 12.8987C70.4623 12.9202 70.4306 12.9739 70.3882 13.0599C70.367 13.1458 70.3353 13.2103 70.2929 13.2533C70.2506 13.3392 70.1871 13.4359 70.1024 13.5434C70.0388 13.6293 69.9965 13.6938 69.9753 13.7367C69.8483 13.9731 69.7001 14.145 69.5307 14.2524C69.4883 14.2524 69.4248 14.2739 69.3401 14.3169C69.2766 14.3599 69.2025 14.3814 69.1178 14.3814C69.0331 14.3814 68.959 14.3384 68.8955 14.2524C68.6202 13.7367 68.4614 13.3177 68.4191 12.9954C68.4191 12.9739 68.4402 12.9202 68.4826 12.8343C68.5249 12.7483 68.5461 12.6731 68.5461 12.6086C69.1601 11.6632 69.5307 11.126 69.6577 10.9971C69.8906 10.7392 69.9541 10.4599 69.8483 10.159C69.8483 10.1376 69.8271 10.0838 69.7848 9.99789C69.7424 9.89045 69.7212 9.8045 69.7212 9.74004C69.5307 9.31029 69.2554 8.98797 68.8955 8.7731C68.2814 9.13839 67.858 9.6326 67.6251 10.2557L67.498 10.5136C67.4133 10.5995 67.3286 10.7177 67.2439 10.8681C67.1592 11.0186 67.1063 11.1045 67.0851 11.126C66.9581 11.4913 66.8946 11.7062 66.8946 11.7706C66.8099 11.8351 66.7675 11.9103 66.7675 11.9962C66.704 12.0822 66.6722 12.1681 66.6722 12.2541C66.6722 12.3186 66.6616 12.4153 66.6405 12.5442C66.6193 12.6731 66.6087 12.7913 66.6087 12.8987L66.704 12.9954C66.5981 13.1888 66.4499 13.5648 66.2594 14.1235C66.2805 14.1665 66.2699 14.231 66.2276 14.3169C66.1852 14.4029 66.1641 14.4673 66.1641 14.5103C66.1641 14.6822 66.1429 14.8004 66.1005 14.8648C66.0582 15.0367 66.0264 15.2194 66.0053 15.4128C65.9841 15.5847 65.9629 15.7566 65.9417 15.9285C65.9841 16.0574 65.9629 16.1863 65.8782 16.3153C65.8782 16.3582 65.8571 16.4549 65.8147 16.6053C65.7935 16.7343 65.7829 16.8417 65.7829 16.9277C65.8888 16.9277 65.9417 17.0136 65.9417 17.1855C65.8782 17.2929 65.8465 17.5401 65.8465 17.9268L66.037 18.7004C66.1005 18.8078 66.1535 18.9797 66.1958 19.2161C66.1958 19.302 66.2805 19.4417 66.4499 19.6351L66.4817 19.8607C66.6511 20.183 66.7675 20.3979 66.831 20.5053C66.8946 20.6987 67.0216 20.8814 67.2122 21.0533C67.4027 21.2252 67.5933 21.3111 67.7839 21.3111C68.2708 21.3111 68.6096 21.2896 68.8002 21.2467C69.0119 21.1822 69.2554 21.0211 69.5307 20.7632C69.7212 20.6128 69.8695 20.4624 69.9753 20.312C70.0812 20.1401 70.1977 19.9037 70.3247 19.6029C70.4517 19.2806 70.5364 19.0872 70.5788 19.0227C71.3622 17.6905 71.8492 16.745 72.0398 16.1863C72.0398 16.1648 72.1139 15.95 72.2621 15.5417C72.4315 15.1334 72.5268 14.8648 72.5479 14.7359C72.5903 14.7359 72.6432 14.7037 72.7067 14.6392C72.7703 14.5533 72.8338 14.521 72.8973 14.5425C72.9608 14.5425 73.0349 14.6177 73.1196 14.7681C73.1196 14.7896 73.1196 14.8434 73.1196 14.9293C73.1196 15.0153 73.1196 15.069 73.1196 15.0905C73.1196 15.1764 73.0667 15.3698 72.9608 15.6706C72.8761 15.9715 72.8338 16.1648 72.8338 16.2508C72.8761 16.3797 72.8444 16.5086 72.7385 16.6376C72.675 17.0888 72.4526 17.8194 72.0715 18.8293C71.3516 20.226 70.9493 21.0103 70.8646 21.1822C69.8271 22.7078 68.6626 23.5029 67.371 23.5673C67.2228 23.6103 67.011 23.5673 66.7358 23.4384C66.1005 23.2665 65.6665 23.0731 65.4336 22.8582C65.3277 22.8582 65.2324 22.8153 65.1477 22.7293C64.9995 22.6219 64.7984 22.45 64.5443 22.2136C64.3114 21.9558 64.1632 21.7946 64.0996 21.7301C63.9938 21.6442 63.9091 21.4938 63.8456 21.2789C63.782 21.064 63.7185 20.9136 63.655 20.8277C63.6126 20.7847 63.4856 20.6235 63.2739 20.3442C63.041 19.6351 62.9245 19.0979 62.9245 18.7326L62.8292 17.3789C62.7657 17.3144 62.7128 17.3037 62.6704 17.3467C62.6281 17.3682 62.6069 17.4111 62.6069 17.4756C62.5645 17.583 62.4799 17.7657 62.3528 18.0235C62.2469 18.2599 62.1728 18.4533 62.1305 18.6037L61.9399 18.9905C61.9399 19.0549 61.9187 19.1516 61.8764 19.2806C61.8552 19.4095 61.8446 19.5062 61.8446 19.5706C61.7811 19.85 61.6858 20.226 61.5588 20.6987C61.5376 20.7417 61.5059 20.8277 61.4635 20.9566C61.4212 21.0855 61.3682 21.1822 61.3047 21.2467C61.2412 21.3111 61.2094 21.3863 61.2094 21.4723C61.0189 21.6872 60.8812 21.9665 60.7965 22.3103C60.7965 22.3533 60.786 22.3855 60.7648 22.407C60.7436 22.4285 60.7118 22.45 60.6695 22.4715C60.6272 22.493 60.5954 22.5252 60.5742 22.5682H60.3201C60.1507 22.783 59.9814 22.783 59.812 22.5682C59.7484 22.7616 59.6426 22.8905 59.4944 22.9549C59.3885 23.0624 59.2297 23.0624 59.018 22.9549C58.9544 22.9549 58.9015 22.8797 58.8592 22.7293C58.9015 22.5574 58.9333 22.364 58.9544 22.1492C58.9968 21.9343 59.018 21.7946 59.018 21.7301C59.1238 20.9566 59.2085 20.2368 59.272 19.5706C59.5261 18.6467 59.6743 17.9161 59.7167 17.3789L60.0343 16.2186C58.785 18.5607 58.1604 19.7533 58.1604 19.7963C58.1181 19.8822 57.9699 20.1078 57.7158 20.4731C57.4617 20.8384 57.3135 21.064 57.2711 21.15C57.0382 21.8161 56.5936 22.4177 55.9372 22.9549C55.2808 23.4921 54.635 23.7607 53.9998 23.7607C53.7245 23.7607 53.5446 23.7392 53.4599 23.6963C53.2693 23.6533 52.9729 23.5244 52.5706 23.3095C52.5282 23.3095 52.4859 23.288 52.4435 23.245C52.4012 23.202 52.3588 23.1806 52.3165 23.1806C52.3165 23.0301 52.2106 22.9549 51.9989 22.9549C51.9142 22.9549 51.8718 22.912 51.8718 22.826L52.0942 22.5682C52.0306 22.4607 51.9883 22.2781 51.9671 22.0202C51.946 21.7409 51.9565 21.5368 51.9989 21.4078C51.9989 21.3649 52.0201 21.193 52.0624 20.8921C52.1048 20.5698 52.1471 20.2905 52.1894 20.0541C52.2318 19.8177 52.2847 19.6458 52.3483 19.5384C52.7082 18.9368 52.8988 18.6037 52.9199 18.5392C52.9623 18.4533 53.0364 18.3458 53.1423 18.2169C53.2693 18.088 53.3434 17.9913 53.3646 17.9268C53.5551 17.5186 53.8833 17.2392 54.3492 17.0888C54.5821 16.9599 54.7726 16.9599 54.9209 17.0888C54.9844 17.0888 55.0161 17.121 55.0161 17.1855C55.0161 17.25 54.995 17.3467 54.9526 17.4756C54.9103 17.583 54.8679 17.6905 54.8256 17.7979C54.7832 17.9053 54.7197 18.0343 54.635 18.1847C54.5715 18.3351 54.5291 18.4318 54.508 18.4748C54.1057 19.0979 53.8833 19.5384 53.841 19.7963C53.7986 19.8822 53.7245 20.0111 53.6187 20.183C53.5128 20.3549 53.4387 20.4839 53.3963 20.5698C53.3752 20.6128 53.3222 20.731 53.2375 20.9244C53.174 21.0963 53.1211 21.2359 53.0787 21.3434C53.0576 21.4293 53.0258 21.5475 52.9835 21.6979C52.9623 21.8483 52.9623 21.9773 52.9835 22.0847C53.0258 22.1921 53.0893 22.2781 53.174 22.3425C53.2587 22.3425 53.3222 22.2996 53.3646 22.2136C53.5551 22.0417 53.7457 21.8268 53.9363 21.569C54.1692 21.2896 54.4339 20.7954 54.7303 20.0863C54.8997 19.764 55.0585 19.4202 55.2067 19.0549C55.3761 18.6896 55.5031 18.3888 55.5878 18.1525C55.6725 17.9161 55.7784 17.5615 55.9054 17.0888C56.0325 16.6161 56.1172 16.3045 56.1595 16.1541C56.2019 16.0037 56.2865 15.6384 56.4136 15.0582C56.5406 14.4566 56.6147 14.1235 56.6359 14.0591C56.6994 13.7367 56.7524 12.802 56.7947 11.2549C56.7947 10.8467 56.7418 10.4814 56.6359 10.159C56.53 9.83673 56.3924 9.64335 56.223 9.57888C56.0536 9.49293 55.8843 9.50368 55.7149 9.61111C55.6302 9.67558 55.5455 9.74004 55.4608 9.8045C55.3973 9.86897 55.3337 9.92268 55.2702 9.96566C55.2279 10.0086 55.1749 10.0731 55.1114 10.159C55.0479 10.2235 54.995 10.2772 54.9526 10.3202C54.9314 10.3632 54.8891 10.4384 54.8256 10.5458C54.762 10.6533 54.7197 10.7285 54.6985 10.7714C54.6774 10.8144 54.6244 10.9111 54.5397 11.0615C54.4762 11.1905 54.4233 11.2871 54.3809 11.3516C54.3597 11.3946 54.2962 11.5128 54.1904 11.7062C54.1057 11.8995 54.0421 12.0392 53.9998 12.1252C53.9151 12.2541 53.8092 12.4905 53.6822 12.8343C53.5551 13.1781 53.4493 13.4144 53.3646 13.5434C53.3858 13.6938 53.2693 13.8657 53.0152 14.0591C52.994 14.145 52.9411 14.2739 52.8564 14.4458C52.7717 14.5962 52.7188 14.7144 52.6976 14.8004C52.7611 14.8648 52.6976 15.1227 52.5071 15.5739C52.3377 16.0037 52.1259 16.412 51.8718 16.7987C51.6178 17.1855 51.4484 17.3252 51.3637 17.2177C51.2578 17.1318 51.1943 17.0458 51.1731 16.9599C51.1519 16.8524 51.1519 16.7772 51.1731 16.7343C51.1731 16.6698 51.2049 16.5624 51.2684 16.412C51.3319 16.2615 51.3743 16.1434 51.3954 16.0574C51.7977 15.0905 52.0942 14.3384 52.2847 13.8012C52.8352 12.1896 53.2799 11.1475 53.6187 10.6748C53.7669 10.3954 53.8939 10.1161 53.9998 9.83673C54.1268 9.53591 54.2433 9.2888 54.3492 9.09541C54.4762 8.90202 54.6668 8.6764 54.9209 8.41855C55.4925 7.8169 56.0854 7.43012 56.6994 7.25822C56.7841 7.21524 56.9218 7.18301 57.1123 7.16152C57.3029 7.11855 57.4405 7.07557 57.5252 7.0326H57.6523C57.5252 7.07557 57.5358 7.11855 57.684 7.16152C57.7475 7.16152 57.7899 7.18301 57.8111 7.22599C57.8322 7.26896 57.8958 7.29045 58.0016 7.29045C58.3827 7.46235 58.658 7.74169 58.8274 8.12847C59.018 8.38632 59.1132 8.55822 59.1132 8.64417C59.3673 9.09541 59.5155 9.58963 59.5579 10.1268C59.6214 10.8789 59.6426 11.2979 59.6214 11.3838C59.6638 11.7276 59.6426 12.0177 59.5579 12.2541C59.5579 12.5334 59.5155 12.7483 59.4308 12.8987L59.4626 13.2533C59.4414 13.4252 59.3779 13.7582 59.272 14.2524C59.1873 14.7252 59.1344 15.0905 59.1132 15.3483C59.0285 15.9715 58.8697 16.4334 58.6368 16.7343C58.5733 16.8632 58.5415 17.0781 58.5415 17.3789L58.4145 17.6045Z" fill="white"/>
<path d="M84.3412 13.7367C84.4048 13.9086 84.4577 14.0161 84.5 14.0591C84.5636 14.102 84.6589 14.1343 84.7859 14.1557C84.9129 14.1772 85.0506 14.2417 85.1988 14.3491C85.1141 15.2086 84.2248 15.7888 82.5309 16.0896C82.1498 16.0896 81.631 16.1219 80.9746 16.1863C80.3182 16.2508 79.7995 16.283 79.4184 16.283C79.0796 16.3475 78.5714 16.412 77.8939 16.4764C77.2375 16.5409 76.7293 16.6053 76.3694 16.6698C76.1153 16.6698 75.8612 16.7987 75.6071 17.0566C75.4165 16.9491 75.3001 16.8739 75.2577 16.831C75.2154 16.788 75.1413 16.6698 75.0354 16.4764C74.7813 15.7029 74.7813 15.0582 75.0354 14.5425C75.226 14.1557 75.5436 13.9624 75.9882 13.9624C76.0941 14.0268 76.2211 14.0591 76.3694 14.0591C76.5387 14.0591 76.7187 14.0483 76.9093 14.0268C77.0999 13.9838 77.2375 13.9624 77.3222 13.9624C77.5339 13.9624 77.7774 13.9301 78.0527 13.8657C78.3491 13.8012 78.5502 13.769 78.6561 13.769C79.5454 13.64 80.4347 13.5756 81.324 13.5756H82.9755C83.272 13.4681 83.7272 13.5219 84.3412 13.7367Z" fill="white"/>
<path d="M92.1082 13.9624C92.3623 14.0268 92.7116 14.1558 93.1563 14.3491C93.6009 14.5425 93.9503 14.6715 94.2044 14.7359C94.522 14.8004 94.9666 14.9293 95.5383 15.1227C96.11 15.3161 96.5546 15.445 96.8723 15.5095C97.4439 15.7029 97.8886 15.9607 98.2062 16.283C98.6297 16.4979 98.9473 16.8202 99.159 17.25C99.4766 17.7442 99.5401 18.3888 99.3496 19.1839C99.286 19.1839 99.2331 19.2053 99.1908 19.2483C99.1696 19.2698 99.159 19.302 99.159 19.345V19.3772C99.159 19.9789 98.8414 20.4946 98.2062 20.9244L97.0628 22.0847C96.8723 22.2566 96.5864 22.493 96.2053 22.7938C95.8453 23.1161 95.5171 23.3847 95.2207 23.5996C94.9454 23.8359 94.6702 24.0401 94.3949 24.212C93.675 24.9425 92.9763 25.3938 92.2987 25.5657C92.2564 25.5657 92.1929 25.5764 92.1082 25.5979C92.0447 25.6409 91.9811 25.6624 91.9176 25.6624C91.8541 25.6624 91.7906 25.6301 91.7271 25.5657C91.9811 25.3078 92.2352 25.1789 92.4893 25.1789L92.7116 25.0178C92.8598 24.8888 92.9763 24.7492 93.061 24.5987H92.8704L92.1082 24.9855C91.9811 25.05 91.7588 25.1467 91.4412 25.2756C91.1236 25.4045 90.9013 25.5012 90.7742 25.5657V25.3723C90.7107 25.3723 90.6578 25.3508 90.6154 25.3078C90.5943 25.3508 90.5837 25.3723 90.5837 25.3723C90.4566 25.4368 90.2343 25.5012 89.9167 25.5657C89.5991 25.6301 89.3768 25.6946 89.2497 25.7591C88.9956 25.7591 88.8051 25.6946 88.678 25.5657C88.678 25.4368 88.551 25.2434 88.2969 24.9855C88.0428 24.7277 87.9158 24.5343 87.9158 24.4054V23.8252C87.8311 23.7178 87.8099 23.5888 87.8523 23.4384C87.9158 23.3095 88.0005 23.245 88.1064 23.245L88.678 22.6649C88.678 22.6004 88.6463 22.4715 88.5828 22.2781C88.5192 22.0847 88.4875 21.9558 88.4875 21.8913L87.9158 18.9905V17.0566C87.7887 16.283 87.7252 15.0582 87.7252 13.3822C87.7252 13.1243 87.757 12.7053 87.8205 12.1252C87.884 11.545 87.9158 11.126 87.9158 10.8681C87.9793 10.288 88.0746 9.38549 88.2016 8.1607C88.3287 6.9359 88.424 6.03342 88.4875 5.45326C88.4875 5.25987 88.5192 4.96978 88.5828 4.58301C88.6463 4.19623 88.678 3.90615 88.678 3.71276C88.678 3.56234 88.7098 3.41193 88.7733 3.26152C88.8368 3.08962 88.8686 2.98218 88.8686 2.9392C88.424 3.04664 87.9158 3.30449 87.3441 3.71276C87.1535 3.8202 87.0265 3.86317 86.963 3.84168C86.8995 3.8202 86.7724 3.71276 86.5818 3.51937C86.5818 3.39044 86.4548 3.32598 86.2007 3.32598C86.1584 3.32598 86.0313 3.35821 85.8196 3.42267C85.5867 3.48714 85.3961 3.51937 85.2479 3.51937C85.1632 3.51937 85.0997 3.51937 85.0573 3.51937C85.015 3.49788 84.9726 3.46565 84.9303 3.42267C84.888 3.35821 84.8668 3.26152 84.8668 3.13259C84.7397 2.87474 84.8033 2.61689 85.0573 2.35904C86.0313 1.3706 87.3335 0.715232 88.9639 0.392918C90.5943 0.049115 92.2141 -0.0690674 93.8232 0.0383706C94.7125 0.0383706 96.0465 0.296222 97.8251 0.811925C98.5873 1.1987 99.032 1.45656 99.159 1.58548C99.2649 1.58548 99.3178 1.59623 99.3178 1.61771C99.339 1.61771 99.3496 1.67143 99.3496 1.77887C99.9213 1.97226 100.302 2.35904 100.493 2.9392C100.62 3.32598 100.684 3.84168 100.684 4.48631L100.112 6.22681C99.9848 6.35574 99.826 6.58136 99.6354 6.90367C99.4449 7.22599 99.286 7.45161 99.159 7.58053C99.0955 7.68797 99.0108 7.79541 98.9049 7.90285C98.8202 7.9888 98.7038 8.09624 98.5556 8.22516C98.4073 8.35409 98.2909 8.46152 98.2062 8.54748L97.6345 9.12764C97.5075 9.19211 97.3487 9.32103 97.1581 9.51442C96.9675 9.70781 96.8087 9.83673 96.6817 9.9012C96.4276 10.159 96.1735 10.3524 95.9194 10.4814C95.8559 10.5458 95.7606 10.6103 95.6336 10.6748C95.5065 10.7392 95.4113 10.8037 95.3477 10.8681C94.5855 11.6417 93.9503 12.2219 93.4421 12.6086C93.3574 12.6946 93.2198 12.8235 93.0292 12.9954C92.8387 13.1458 92.6587 13.307 92.4893 13.4789C92.3411 13.6293 92.214 13.7905 92.1082 13.9624ZM90.012 2.74581V3.51937C90.012 3.58383 90.0437 3.71276 90.1073 3.90615C90.1708 4.09953 90.2025 4.22846 90.2025 4.29292V7.58053V9.70781V10.288C90.2025 11.0615 90.2661 11.6417 90.3931 12.0285C90.2661 12.1574 90.2661 12.2219 90.3931 12.2219C90.4566 12.2219 90.499 12.2111 90.5202 12.1896C90.5625 12.1467 90.5837 12.1037 90.5837 12.0607V12.0285C90.7742 11.8351 91.0601 11.5128 91.4412 11.0615C91.8223 10.6103 92.1082 10.288 92.2987 10.0946C92.6799 9.70781 93.2516 9.09541 94.0138 8.25739C94.7761 7.41937 95.3477 6.80698 95.7289 6.4202C96.5546 5.58218 97.2534 4.6797 97.8251 3.71276C97.8886 3.64829 97.9521 3.5516 98.0156 3.42267C98.0791 3.29375 98.1427 3.19705 98.2062 3.13259C98.2062 3.06813 98.1744 3.00366 98.1109 2.9392C98.0474 2.87474 98.0156 2.81028 98.0156 2.74581C97.8886 2.70284 97.7086 2.62763 97.4757 2.52019C97.2428 2.41276 97.0311 2.3268 96.8405 2.26234C96.6499 2.19788 96.4699 2.16565 96.3006 2.16565C96.1947 2.05821 96.0677 2.00449 95.9194 2.00449C95.7712 2.00449 95.6442 2.05821 95.5383 2.16565C95.4113 2.29457 95.1572 2.35904 94.7761 2.35904C94.522 2.23011 94.1408 2.16565 93.6327 2.16565C92.9975 2.16565 92.1717 2.29457 91.1554 2.55242C90.6472 2.55242 90.2661 2.61689 90.012 2.74581ZM90.2025 15.3161V15.8962V16.6698C90.0755 16.7987 90.012 17.121 90.012 17.6367V19.1839C89.7579 20.2153 89.5673 20.9244 89.4403 21.3111V21.8913V22.2781C89.4403 22.2136 89.4509 22.1706 89.4721 22.1492C89.5144 22.1062 89.5567 22.0847 89.5991 22.0847H89.6309C90.139 21.6979 90.9013 21.15 91.9176 20.4409C92.934 19.7318 93.6962 19.1839 94.2044 18.7971C94.3949 18.6682 94.649 18.4748 94.9666 18.2169C95.2842 17.9591 95.5383 17.7657 95.7289 17.6367C95.8559 17.5078 95.9194 17.3789 95.9194 17.25C95.6654 17.25 95.4748 17.1855 95.3477 17.0566C94.9666 17.0566 94.3949 16.9277 93.6327 16.6698C92.6163 16.412 91.9176 16.0896 91.5365 15.7029C91.4094 15.5739 91.3459 15.5739 91.3459 15.7029C91.0918 15.7029 90.7107 15.5739 90.2025 15.3161Z" fill="white"/>
<path d="M105.645 11.7062C105.687 11.6632 105.74 11.631 105.804 11.6095C105.867 11.5665 105.91 11.5343 105.931 11.5128C105.973 11.4698 105.994 11.4161 105.994 11.3516H106.566C106.566 11.2227 106.693 11.1582 106.947 11.1582C107.074 11.2227 107.18 11.3194 107.265 11.4483C107.371 11.5557 107.487 11.6417 107.614 11.7062C108.165 11.8995 108.62 12.2648 108.98 12.802C109.086 12.9095 109.181 13.0921 109.266 13.35C109.372 13.6078 109.456 13.9086 109.52 14.2524C109.605 14.5962 109.668 14.8219 109.71 14.9293L109.552 17.2177C109.594 17.1963 109.848 17.0029 110.314 16.6376C110.399 16.5516 110.61 16.2293 110.949 15.6706C110.97 15.6921 111.023 15.7136 111.108 15.7351C111.214 15.7351 111.288 15.7566 111.33 15.7996C111.394 15.821 111.426 15.864 111.426 15.9285C111.383 16.1863 111.267 16.4764 111.076 16.7987C110.886 17.121 110.748 17.3037 110.663 17.3467C110.176 17.8409 109.753 18.131 109.393 18.2169L109.329 18.4748C109.266 18.6682 109.202 18.9582 109.139 19.345C109.075 19.7318 109.012 20.0219 108.948 20.2153C108.906 20.2582 108.863 20.3334 108.821 20.4409C108.779 20.5483 108.736 20.6343 108.694 20.6987C108.673 20.7632 108.631 20.7954 108.567 20.7954C108.44 20.9244 108.377 21.1177 108.377 21.3756C108.377 21.6334 108.313 21.8268 108.186 21.9558C108.186 22.2136 108.122 22.3425 107.995 22.3425C107.868 22.3425 107.805 22.4715 107.805 22.7293C107.762 22.7723 107.71 22.8045 107.646 22.826C107.604 22.869 107.572 22.9012 107.551 22.9227C107.551 22.9442 107.551 22.9657 107.551 22.9872C107.551 23.0301 107.572 23.0731 107.614 23.1161C107.508 23.202 107.413 23.3632 107.328 23.5996C107.244 23.8574 107.148 24.0186 107.043 24.083C106.916 24.1475 106.757 24.2764 106.566 24.4698C106.376 24.6632 106.217 24.7921 106.09 24.8566C105.963 25.1144 105.645 25.3723 105.137 25.6301C105.073 25.6301 104.946 25.6624 104.756 25.7268C104.565 25.7913 104.438 25.8235 104.375 25.8235H103.803C103.041 25.4368 102.596 25.1789 102.469 25.05C102.046 24.8351 101.728 24.5128 101.516 24.083C101.262 23.8252 101.135 23.6318 101.135 23.5029C101.135 23.4384 101.114 23.3847 101.072 23.3417C101.05 23.3202 101.029 23.3095 101.008 23.3095H100.945C100.563 22.5359 100.373 21.7624 100.373 20.9888C100.373 20.8814 100.331 20.5698 100.246 20.0541C100.161 19.5169 100.161 19.1946 100.246 19.0872C100.246 18.7434 100.288 18.2706 100.373 17.669C100.458 17.0458 100.542 16.6483 100.627 16.4764C100.754 15.402 101.188 14.2095 101.929 12.8987C102.035 12.5764 102.501 11.9962 103.327 11.1582C103.432 11.0508 103.623 10.9326 103.898 10.8037C104.195 10.6533 104.428 10.5781 104.597 10.5781C104.682 10.621 104.766 10.6533 104.851 10.6748C104.936 10.6962 104.999 10.707 105.042 10.707C105.105 10.707 105.148 10.7285 105.169 10.7714C105.211 10.8144 105.232 10.8789 105.232 10.9648V11.1582C104.936 11.4591 104.788 11.7384 104.788 11.9962C104.788 12.1467 104.713 12.3186 104.565 12.5119C104.438 12.7053 104.375 12.8235 104.375 12.8665C104.121 13.64 103.994 14.1558 103.994 14.4136C103.994 14.5425 103.962 14.7359 103.898 14.9938C103.835 15.2516 103.803 15.445 103.803 15.5739C103.739 15.7673 103.612 16.3475 103.422 17.3144C103.231 18.2814 103.104 18.8615 103.041 19.0549V20.0219C102.914 20.4087 102.85 20.9244 102.85 21.569C102.85 22.0847 102.977 22.7293 103.231 23.5029C103.697 23.8037 104.205 23.6748 104.756 23.1161C104.989 22.8797 105.2 22.4822 105.391 21.9235C105.603 21.3649 105.73 21.0318 105.772 20.9244C106.069 20.1078 106.301 19.2268 106.471 18.2814C105.539 18.0665 104.957 17.2822 104.724 15.9285C104.512 14.5748 104.724 13.307 105.359 12.1252C105.38 12.0177 105.476 11.8781 105.645 11.7062ZM106.661 16.3475C106.661 16.1111 106.683 15.7673 106.725 15.3161C106.767 14.8648 106.778 14.4673 106.757 14.1235C106.736 13.7797 106.672 13.4359 106.566 13.0921C106.503 13.0491 106.45 12.9739 106.407 12.8665C105.878 13.1673 105.603 13.8872 105.582 15.026C105.582 16.1648 105.899 16.9384 106.534 17.3467C106.598 16.8524 106.64 16.5194 106.661 16.3475Z" fill="white"/>
<path d="M120.259 9.38549V8.80533C120.005 8.52599 119.793 8.37558 119.624 8.35409C119.454 8.31111 119.243 8.37557 118.988 8.54748C118.459 8.54748 117.887 8.82682 117.273 9.38549C116.765 9.7293 116.416 10.1161 116.225 10.5458C115.802 11.083 115.601 11.7169 115.622 12.4475C115.664 13.1781 115.95 13.7475 116.479 14.1557C116.479 14.3277 116.543 14.4566 116.67 14.5425C116.733 14.521 116.776 14.4781 116.797 14.4136C117.072 14.4136 117.443 14.607 117.909 14.9938C118.247 14.9938 118.607 15.1872 118.988 15.5739C118.988 15.7458 118.936 15.9285 118.83 16.1219C118.724 16.3153 118.671 16.5624 118.671 16.8632C118.586 17.0566 118.417 17.3359 118.163 17.7012C117.909 18.0665 117.718 18.3673 117.591 18.6037C116.85 19.9789 115.865 21.0425 114.637 21.7946C114.51 21.9235 114.235 22.0202 113.812 22.0847C113.409 22.1277 113.081 22.0847 112.827 21.9558C112.615 21.9558 112.372 21.8161 112.096 21.5368C111.842 21.2359 111.641 21.0533 111.493 20.9888C111.239 20.731 110.942 20.0111 110.604 18.8293C110.265 17.6475 110.244 16.6805 110.54 15.9285C110.583 15.7996 110.635 15.6277 110.699 15.4128C110.741 15.1979 110.784 15.0582 110.826 14.9938C110.847 14.9293 110.9 14.8434 110.985 14.7359C111.048 14.6285 111.154 14.5318 111.302 14.4458C111.768 14.1665 112.118 14.231 112.351 14.6392C112.605 15.0475 112.626 15.402 112.414 15.7029C112.351 15.7673 112.245 15.8748 112.096 16.0252C111.948 16.1756 111.821 16.3153 111.715 16.4442C111.609 16.5516 111.557 16.6483 111.557 16.7343C111.557 17.2715 111.609 17.8086 111.715 18.3458C111.842 18.883 111.969 19.3128 112.096 19.6351C112.245 19.9359 112.361 20.0863 112.446 20.0863C112.869 20.0434 113.367 19.6566 113.939 18.926C114.531 18.1954 115.103 17.2715 115.654 16.1541L115.4 15.8962C114.193 15.3376 113.452 14.3062 113.176 12.802C112.943 10.6533 113.684 8.86979 115.4 7.45161C115.527 7.30119 115.696 7.17227 115.908 7.06483C116.141 6.9359 116.331 6.87144 116.479 6.87144C117.22 6.52764 118.205 6.35574 119.433 6.35574C119.645 6.52764 119.92 6.61359 120.259 6.61359H120.894C121.042 6.764 121.201 6.8607 121.371 6.90367C121.54 6.94665 121.752 6.95739 122.006 6.9359C122.281 6.89293 122.44 6.87144 122.482 6.87144H122.8C123.139 7.21524 123.308 7.58053 123.308 7.96731C123.731 9.08467 123.943 9.83673 123.943 10.2235C123.943 10.7822 123.795 11.6202 123.498 12.7376C123.202 13.8334 123.054 14.5855 123.054 14.9938C123.054 15.1872 122.948 16.0252 122.736 17.5078C122.524 18.9905 122.419 19.8177 122.419 19.9896C122.652 19.7963 123.054 19.2806 123.626 18.4425C123.753 18.2706 123.964 17.9483 124.261 17.4756C124.578 17.0029 124.917 16.5086 125.277 15.9929C125.319 15.95 125.372 15.8748 125.436 15.7673C125.499 15.6599 125.552 15.5739 125.595 15.5095C125.637 15.445 125.69 15.3805 125.753 15.3161C125.817 15.2301 125.87 15.1979 125.912 15.2194C125.976 15.2194 126.05 15.2409 126.135 15.2838L126.198 15.3483C126.283 15.4343 126.325 15.5524 126.325 15.7029C126.346 15.8318 126.315 15.9929 126.23 16.1863C126.166 16.3582 126.103 16.4979 126.039 16.6053C125.976 16.7128 125.881 16.8739 125.753 17.0888L125.563 17.3789C125.436 17.5938 125.245 17.9161 124.991 18.3458C124.737 18.7541 124.451 19.1839 124.134 19.6351C123.816 20.0863 123.297 20.7954 122.577 21.7624C122.175 22.2996 121.974 22.826 121.974 23.3417L121.72 23.9541C121.678 24.1045 121.625 24.2442 121.561 24.3731C121.498 24.502 121.455 24.588 121.434 24.631C121.413 24.674 121.392 24.7492 121.371 24.8566C121.349 24.9855 121.339 25.1467 121.339 25.3401C121.296 25.4475 121.191 25.5979 121.021 25.7913C120.873 25.9847 120.746 26.2425 120.64 26.5649C120.217 26.6508 119.92 26.6508 119.751 26.5649L118.83 26.0814C118.808 26.0384 118.734 25.8987 118.607 25.6624C118.48 25.4475 118.353 25.2756 118.226 25.1467C118.12 25.0178 117.993 24.9103 117.845 24.8244C117.527 24.3946 117.527 23.9434 117.845 23.4706C117.93 23.4062 118.036 23.3095 118.163 23.1806C118.311 23.0731 118.406 22.9872 118.449 22.9227C118.491 22.8797 118.533 22.8045 118.576 22.6971C118.639 22.6111 118.671 22.5037 118.671 22.3748C118.671 21.9665 118.84 21.2037 119.179 20.0863C119.243 19.4847 119.348 18.5822 119.497 17.3789C119.645 16.1541 119.761 15.026 119.846 13.9946C119.952 12.9632 120.005 11.9855 120.005 11.0615C120.005 10.8896 120.047 10.621 120.132 10.2557C120.217 9.86897 120.259 9.57888 120.259 9.38549Z" fill="white"/>
<path d="M132.295 17.6045L132.168 17.7334C132.168 17.9698 132.125 18.131 132.041 18.2169C132.02 18.2814 132.051 18.2491 132.136 18.1202C132.771 17.0888 133.481 15.6277 134.264 13.7367L134.518 13.0599C134.645 12.7161 134.74 12.4475 134.804 12.2541C134.846 12.1252 134.889 11.8351 134.931 11.3838C134.973 10.9111 135.005 10.6103 135.026 10.4814C135.111 10.1805 135.185 9.77227 135.249 9.25657C135.312 8.71938 135.429 8.25739 135.598 7.87062C135.725 7.63425 136.138 7.51607 136.837 7.51607C136.837 7.60202 136.911 7.645 137.059 7.645C137.228 7.8169 137.281 7.97805 137.218 8.12847C137.175 8.2359 137.165 8.3326 137.186 8.41855C137.207 8.48301 137.239 8.60119 137.281 8.7731C137.324 8.92351 137.345 9.04169 137.345 9.12764L137.25 9.25657C137.292 9.49293 137.228 9.81525 137.059 10.2235C136.89 10.6103 136.794 10.8681 136.773 10.9971C136.752 11.1475 136.71 11.3946 136.646 11.7384C136.604 12.0607 136.561 12.3078 136.519 12.4797C136.498 12.5657 136.466 12.6946 136.424 12.8665C136.403 13.0384 136.371 13.1673 136.328 13.2533C136.307 13.7045 136.212 14.3062 136.043 15.0582C135.894 15.8103 135.81 16.2401 135.789 16.3475L135.82 16.7343C135.969 16.5194 136.106 16.2723 136.233 15.9929C136.72 15.1119 137.059 14.5318 137.25 14.2524C137.334 13.9086 137.387 13.6938 137.408 13.6078C137.599 13.4144 137.694 13.2533 137.694 13.1243C137.948 12.4367 138.34 11.6095 138.869 10.6425C138.996 10.4706 139.166 10.1913 139.377 9.8045C139.589 9.41773 139.737 9.14913 139.822 8.99872C139.907 8.89128 140.044 8.73012 140.235 8.51524C140.447 8.30037 140.595 8.12847 140.68 7.99954C140.701 7.99954 140.722 7.97805 140.743 7.93508C140.786 7.8921 140.828 7.87062 140.87 7.87062C140.955 7.7202 141.167 7.645 141.505 7.645H142.236C142.469 7.645 142.628 7.68797 142.712 7.77392C142.818 7.8169 142.945 7.88136 143.093 7.96731C143.242 8.05326 143.337 8.10698 143.379 8.12847C143.718 8.32186 143.93 8.49376 144.015 8.64417C144.523 9.1169 144.798 9.69706 144.84 10.3847C144.861 10.7285 144.851 11.0615 144.809 11.3838C144.83 11.6632 144.713 11.9855 144.459 12.3508C144.459 12.3938 144.438 12.4905 144.396 12.6409C144.374 12.7698 144.364 12.8557 144.364 12.8987C144.343 12.9202 144.311 12.9739 144.269 13.0599C144.247 13.1458 144.216 13.2103 144.173 13.2533C144.131 13.3392 144.067 13.4359 143.983 13.5434C143.919 13.6293 143.877 13.6938 143.856 13.7367C143.729 13.9731 143.58 14.145 143.411 14.2524C143.369 14.2524 143.305 14.2739 143.221 14.3169C143.157 14.3599 143.083 14.3814 142.998 14.3814C142.913 14.3814 142.839 14.3384 142.776 14.2524C142.501 13.7367 142.342 13.3177 142.299 12.9954C142.299 12.9739 142.321 12.9202 142.363 12.8343C142.405 12.7483 142.426 12.6731 142.426 12.6086C143.041 11.6632 143.411 11.126 143.538 10.9971C143.771 10.7392 143.835 10.4599 143.729 10.159C143.729 10.1376 143.707 10.0838 143.665 9.99789C143.623 9.89045 143.602 9.8045 143.602 9.74004C143.411 9.31029 143.136 8.98797 142.776 8.7731C142.162 9.13839 141.738 9.6326 141.505 10.2557L141.378 10.5136C141.294 10.5995 141.209 10.7177 141.124 10.8681C141.04 11.0186 140.987 11.1045 140.965 11.126C140.838 11.4913 140.775 11.7062 140.775 11.7706C140.69 11.8351 140.648 11.9103 140.648 11.9962C140.584 12.0822 140.553 12.1681 140.553 12.2541C140.553 12.3186 140.542 12.4153 140.521 12.5442C140.5 12.6731 140.489 12.7913 140.489 12.8987L140.584 12.9954C140.479 13.1888 140.33 13.5648 140.14 14.1235C140.161 14.1665 140.15 14.231 140.108 14.3169C140.066 14.4029 140.044 14.4673 140.044 14.5103C140.044 14.6822 140.023 14.8004 139.981 14.8648C139.939 15.0367 139.907 15.2194 139.886 15.4128C139.864 15.5847 139.843 15.7566 139.822 15.9285C139.864 16.0574 139.843 16.1863 139.759 16.3153C139.759 16.3582 139.737 16.4549 139.695 16.6053C139.674 16.7343 139.663 16.8417 139.663 16.9277C139.769 16.9277 139.822 17.0136 139.822 17.1855C139.759 17.2929 139.727 17.5401 139.727 17.9268L139.917 18.7004C139.981 18.8078 140.034 18.9797 140.076 19.2161C140.076 19.302 140.161 19.4417 140.33 19.6351L140.362 19.8607C140.531 20.183 140.648 20.3979 140.711 20.5053C140.775 20.6987 140.902 20.8814 141.093 21.0533C141.283 21.2252 141.474 21.3111 141.664 21.3111C142.151 21.3111 142.49 21.2896 142.681 21.2467C142.892 21.1822 143.136 21.0211 143.411 20.7632C143.602 20.6128 143.75 20.4624 143.856 20.312C143.962 20.1401 144.078 19.9037 144.205 19.6029C144.332 19.2806 144.417 19.0872 144.459 19.0227C145.243 17.6905 145.73 16.745 145.92 16.1863C145.92 16.1648 145.994 15.95 146.142 15.5417C146.312 15.1334 146.407 14.8648 146.428 14.7359C146.471 14.7359 146.524 14.7037 146.587 14.6392C146.651 14.5533 146.714 14.521 146.778 14.5425C146.841 14.5425 146.915 14.6177 147 14.7681C147 14.7896 147 14.8434 147 14.9293C147 15.0153 147 15.069 147 15.0905C147 15.1764 146.947 15.3698 146.841 15.6706C146.757 15.9715 146.714 16.1648 146.714 16.2508C146.757 16.3797 146.725 16.5086 146.619 16.6376C146.555 17.0888 146.333 17.8194 145.952 18.8293C145.232 20.226 144.83 21.0103 144.745 21.1822C143.707 22.7078 142.543 23.5029 141.251 23.5673C141.103 23.6103 140.891 23.5673 140.616 23.4384C139.981 23.2665 139.547 23.0731 139.314 22.8582C139.208 22.8582 139.113 22.8153 139.028 22.7293C138.88 22.6219 138.679 22.45 138.425 22.2136C138.192 21.9558 138.044 21.7946 137.98 21.7301C137.874 21.6442 137.789 21.4938 137.726 21.2789C137.662 21.064 137.599 20.9136 137.535 20.8277C137.493 20.7847 137.366 20.6235 137.154 20.3442C136.921 19.6351 136.805 19.0979 136.805 18.7326L136.71 17.3789C136.646 17.3144 136.593 17.3037 136.551 17.3467C136.508 17.3682 136.487 17.4111 136.487 17.4756C136.445 17.583 136.36 17.7657 136.233 18.0235C136.127 18.2599 136.053 18.4533 136.011 18.6037L135.82 18.9905C135.82 19.0549 135.799 19.1516 135.757 19.2806C135.736 19.4095 135.725 19.5062 135.725 19.5706C135.661 19.85 135.566 20.226 135.439 20.6987C135.418 20.7417 135.386 20.8277 135.344 20.9566C135.302 21.0855 135.249 21.1822 135.185 21.2467C135.122 21.3111 135.09 21.3863 135.09 21.4723C134.899 21.6872 134.762 21.9665 134.677 22.3103C134.677 22.3533 134.666 22.3855 134.645 22.407C134.624 22.4285 134.592 22.45 134.55 22.4715C134.508 22.493 134.476 22.5252 134.455 22.5682H134.201C134.031 22.783 133.862 22.783 133.692 22.5682C133.629 22.7616 133.523 22.8905 133.375 22.9549C133.269 23.0624 133.11 23.0624 132.898 22.9549C132.835 22.9549 132.782 22.8797 132.74 22.7293C132.782 22.5574 132.814 22.364 132.835 22.1492C132.877 21.9343 132.898 21.7946 132.898 21.7301C133.004 20.9566 133.089 20.2368 133.152 19.5706C133.406 18.6467 133.555 17.9161 133.597 17.3789L133.915 16.2186C132.665 18.5607 132.041 19.7533 132.041 19.7963C131.998 19.8822 131.85 20.1078 131.596 20.4731C131.342 20.8384 131.194 21.064 131.152 21.15C130.919 21.8161 130.474 22.4177 129.818 22.9549C129.161 23.4921 128.515 23.7607 127.88 23.7607C127.605 23.7607 127.425 23.7392 127.34 23.6963C127.15 23.6533 126.853 23.5244 126.451 23.3095C126.409 23.3095 126.366 23.288 126.324 23.245C126.282 23.202 126.239 23.1806 126.197 23.1806C126.197 23.0301 126.091 22.9549 125.879 22.9549C125.795 22.9549 125.752 22.912 125.752 22.826L125.975 22.5682C125.911 22.4607 125.869 22.2781 125.848 22.0202C125.826 21.7409 125.837 21.5368 125.879 21.4078C125.879 21.3649 125.9 21.193 125.943 20.8921C125.985 20.5698 126.027 20.2905 126.07 20.0541C126.112 19.8177 126.165 19.6458 126.229 19.5384C126.589 18.9368 126.779 18.6037 126.8 18.5392C126.843 18.4533 126.917 18.3458 127.023 18.2169C127.15 18.088 127.224 17.9913 127.245 17.9268C127.436 17.5186 127.764 17.2392 128.23 17.0888C128.462 16.9599 128.653 16.9599 128.801 17.0888C128.865 17.0888 128.897 17.121 128.897 17.1855C128.897 17.25 128.875 17.3467 128.833 17.4756C128.791 17.583 128.748 17.6905 128.706 17.7979C128.664 17.9053 128.6 18.0343 128.515 18.1847C128.452 18.3351 128.41 18.4318 128.388 18.4748C127.986 19.0979 127.764 19.5384 127.721 19.7963C127.679 19.8822 127.605 20.0111 127.499 20.183C127.393 20.3549 127.319 20.4839 127.277 20.5698C127.256 20.6128 127.203 20.731 127.118 20.9244C127.054 21.0963 127.001 21.2359 126.959 21.3434C126.938 21.4293 126.906 21.5475 126.864 21.6979C126.843 21.8483 126.843 21.9773 126.864 22.0847C126.906 22.1921 126.97 22.2781 127.054 22.3425C127.139 22.3425 127.203 22.2996 127.245 22.2136C127.436 22.0417 127.626 21.8268 127.817 21.569C128.05 21.2896 128.314 20.7954 128.611 20.0863C128.78 19.764 128.939 19.4202 129.087 19.0549C129.256 18.6896 129.383 18.3888 129.468 18.1525C129.553 17.9161 129.659 17.5615 129.786 17.0888C129.913 16.6161 129.998 16.3045 130.04 16.1541C130.082 16.0037 130.167 15.6384 130.294 15.0582C130.421 14.4566 130.495 14.1235 130.516 14.0591C130.58 13.7367 130.633 12.802 130.675 11.2549C130.675 10.8467 130.622 10.4814 130.516 10.159C130.41 9.83673 130.273 9.64335 130.103 9.57888C129.934 9.49293 129.765 9.50368 129.595 9.61111C129.511 9.67558 129.426 9.74004 129.341 9.8045C129.278 9.86897 129.214 9.92268 129.151 9.96566C129.108 10.0086 129.055 10.0731 128.992 10.159C128.928 10.2235 128.875 10.2772 128.833 10.3202C128.812 10.3632 128.769 10.4384 128.706 10.5458C128.642 10.6533 128.6 10.7285 128.579 10.7714C128.558 10.8144 128.505 10.9111 128.42 11.0615C128.357 11.1905 128.304 11.2871 128.261 11.3516C128.24 11.3946 128.177 11.5128 128.071 11.7062C127.986 11.8995 127.923 12.0392 127.88 12.1252C127.795 12.2541 127.69 12.4905 127.563 12.8343C127.436 13.1781 127.33 13.4144 127.245 13.5434C127.266 13.6938 127.15 13.8657 126.896 14.0591C126.874 14.145 126.821 14.2739 126.737 14.4458C126.652 14.5962 126.599 14.7144 126.578 14.8004C126.642 14.8648 126.578 15.1227 126.387 15.5739C126.218 16.0037 126.006 16.412 125.752 16.7987C125.498 17.1855 125.329 17.3252 125.244 17.2177C125.138 17.1318 125.075 17.0458 125.053 16.9599C125.032 16.8524 125.032 16.7772 125.053 16.7343C125.053 16.6698 125.085 16.5624 125.149 16.412C125.212 16.2615 125.255 16.1434 125.276 16.0574C125.678 15.0905 125.975 14.3384 126.165 13.8012C126.716 12.1896 127.16 11.1475 127.499 10.6748C127.647 10.3954 127.774 10.1161 127.88 9.83673C128.007 9.53591 128.124 9.2888 128.23 9.09541C128.357 8.90202 128.547 8.6764 128.801 8.41855C129.373 7.8169 129.966 7.43012 130.58 7.25822C130.665 7.21524 130.802 7.18301 130.993 7.16152C131.183 7.11855 131.321 7.07557 131.406 7.0326H131.533C131.406 7.07557 131.416 7.11855 131.564 7.16152C131.628 7.16152 131.67 7.18301 131.691 7.22599C131.713 7.26896 131.776 7.29045 131.882 7.29045C132.263 7.46235 132.538 7.74169 132.708 8.12847C132.898 8.38632 132.994 8.55822 132.994 8.64417C133.248 9.09541 133.396 9.58963 133.438 10.1268C133.502 10.8789 133.523 11.2979 133.502 11.3838C133.544 11.7276 133.523 12.0177 133.438 12.2541C133.438 12.5334 133.396 12.7483 133.311 12.8987L133.343 13.2533C133.322 13.4252 133.258 13.7582 133.152 14.2524C133.068 14.7252 133.015 15.0905 132.994 15.3483C132.909 15.9715 132.75 16.4334 132.517 16.7343C132.454 16.8632 132.422 17.0781 132.422 17.3789L132.295 17.6045Z" fill="white"/>
</svg>
