<svg width="20" height="17" viewBox="0 0 20 17" fill="none" xmlns="http://www.w3.org/2000/svg">
<path fill-rule="evenodd" clip-rule="evenodd" d="M1.32347 7.41134C6.49138 5.15977 9.93746 3.6754 11.6617 2.95823C16.5848 0.910544 17.6078 0.55484 18.2745 0.543094C18.4212 0.540511 18.7491 0.576854 18.9615 0.749199C19.1408 0.894723 19.1902 1.09131 19.2138 1.22928C19.2374 1.36725 19.2668 1.68156 19.2434 1.92715C18.9766 4.73027 17.8223 11.5327 17.235 14.6722C16.9865 16.0007 16.4972 16.4461 16.0235 16.4897C14.994 16.5844 14.2123 15.8094 13.2152 15.1558C11.655 14.133 10.7735 13.4963 9.25904 12.4983C7.50879 11.3449 8.6434 10.711 9.64086 9.67501C9.90191 9.40388 14.4377 5.27819 14.5255 4.90392C14.5365 4.85711 14.5467 4.68263 14.4431 4.5905C14.3394 4.49837 14.1864 4.52988 14.076 4.55493C13.9195 4.59045 11.427 6.2379 6.59849 9.4973C5.891 9.98311 5.25017 10.2198 4.67602 10.2074C4.04306 10.1937 2.82549 9.84953 1.92036 9.5553C0.810181 9.19443 -0.0721689 9.00363 0.00466397 8.39075C0.0446833 8.07153 0.484286 7.74506 1.32347 7.41134Z" fill="#697890"/>
</svg>
