<svg width="24" height="14" viewBox="0 0 24 14" fill="none" xmlns="http://www.w3.org/2000/svg">
<path fill-rule="evenodd" clip-rule="evenodd" d="M12.7456 13.4457C12.7456 13.4457 13.1646 13.4 13.3792 13.1737C13.5756 12.9664 13.5688 12.5752 13.5688 12.5752C13.5688 12.5752 13.5427 10.7485 14.4067 10.4788C15.2583 10.2136 16.3517 12.2453 17.5121 13.0266C18.3886 13.6173 19.0539 13.488 19.0539 13.488L22.1548 13.4457C22.1548 13.4457 23.7761 13.3476 23.0074 12.096C22.9439 11.9934 22.559 11.1698 20.7026 9.47799C18.7576 7.70702 19.0187 7.99345 21.36 4.92965C22.786 3.06395 23.356 1.92491 23.1778 1.43787C23.0086 0.972 21.9595 1.09571 21.9595 1.09571L18.4692 1.11689C18.4692 1.11689 18.2103 1.08234 18.0185 1.1949C17.8311 1.30524 17.7096 1.56269 17.7096 1.56269C17.7096 1.56269 17.1578 3.00599 16.4209 4.23419C14.8666 6.82432 14.2455 6.96141 13.9911 6.80092C13.3996 6.42533 13.5472 5.29409 13.5472 4.49053C13.5472 1.97952 13.9355 0.932992 12.7922 0.662164C12.4129 0.571889 12.1336 0.512819 11.1628 0.502789C9.91729 0.490529 8.86363 0.507247 8.2664 0.793677C7.86901 0.98426 7.56245 1.41 7.74979 1.43452C7.98028 1.46462 8.50257 1.57272 8.77961 1.94274C9.13726 2.42087 9.12477 3.49304 9.12477 3.49304C9.12477 3.49304 9.33029 6.44873 8.6445 6.81541C8.17444 7.06729 7.52952 6.5535 6.14319 4.20298C5.43355 2.9993 4.89764 1.66857 4.89764 1.66857C4.89764 1.66857 4.79432 1.42004 4.60925 1.28629C4.38557 1.12469 4.07333 1.07454 4.07333 1.07454L0.756795 1.09571C0.756795 1.09571 0.25835 1.10909 0.0755484 1.32196C-0.0868154 1.51031 0.0630589 1.90151 0.0630589 1.90151C0.0630589 1.90151 2.65974 7.86528 5.60046 10.8711C8.29706 13.6262 11.3581 13.4457 11.3581 13.4457H12.7456Z" fill="#697890"/>
</svg>
