<svg width="33" height="19" viewBox="0 0 33 19" fill="none" xmlns="http://www.w3.org/2000/svg">
<path fill-rule="evenodd" clip-rule="evenodd" d="M18.1015 18.6704C18.1015 18.6704 18.6849 18.6068 18.9837 18.2917C19.2572 18.0031 19.2477 17.4584 19.2477 17.4584C19.2477 17.4584 19.2114 14.9149 20.4145 14.5393C21.6002 14.17 23.1226 16.999 24.7384 18.0869C25.9589 18.9094 26.8853 18.7294 26.8853 18.7294L31.2029 18.6704C31.2029 18.6704 33.4605 18.5338 32.3902 16.7911C32.3016 16.6483 31.7657 15.5015 29.1808 13.1458C26.4727 10.6799 26.8363 11.0787 30.0962 6.81264C32.0819 4.21483 32.8755 2.62883 32.6273 1.95067C32.3918 1.30199 30.931 1.47425 30.931 1.47425L26.0711 1.50373C26.0711 1.50373 25.7107 1.45562 25.4435 1.61236C25.1826 1.766 25.0135 2.12447 25.0135 2.12447C25.0135 2.12447 24.2451 4.13413 23.2191 5.84428C21.0548 9.4508 20.19 9.64167 19.8358 9.41821C19.0122 8.89523 19.2177 7.32009 19.2177 6.20121C19.2177 2.70487 19.7584 1.24768 18.1664 0.870574C17.6383 0.744873 17.2494 0.662625 15.8977 0.648658C14.1634 0.631588 12.6963 0.654866 11.8647 1.05369C11.3113 1.31906 10.8845 1.91187 11.1453 1.94601C11.4663 1.98791 12.1935 2.13844 12.5793 2.65366C13.0773 3.31941 13.0599 4.81229 13.0599 4.81229C13.0599 4.81229 13.346 8.92782 12.3911 9.43838C11.7366 9.7891 10.8386 9.07369 8.9083 5.80083C7.9202 4.12482 7.17399 2.2719 7.17399 2.2719C7.17399 2.2719 7.03012 1.92584 6.77243 1.73961C6.46098 1.51459 6.02622 1.44476 6.02622 1.44476L1.40826 1.47425C1.40826 1.47425 0.714219 1.49287 0.459686 1.78927C0.23361 2.05154 0.442296 2.59624 0.442296 2.59624C0.442296 2.59624 4.05793 10.9002 8.1526 15.0856C11.9074 18.9218 16.1696 18.6704 16.1696 18.6704H18.1015Z" fill="#4F4F4F"/>
</svg>
