<svg width="18" height="18" viewBox="0 0 18 18" fill="none" xmlns="http://www.w3.org/2000/svg">
<path d="M0 18L1.27221 13.3802C0.485673 12.0242 0.0730658 10.4886 0.0773638 8.91873C0.0773638 3.99953 4.10028 0 9.03868 0C11.437 0 13.6891 0.928232 15.3782 2.61359C17.0716 4.29896 18.0043 6.5404 18 8.92301C18 13.8422 13.9771 17.8417 9.03438 17.8417H9.03008C7.53008 17.8417 6.05587 17.4653 4.74498 16.7552L0 18ZM4.97278 15.1426L5.24355 15.3051C6.38681 15.981 7.6977 16.336 9.03438 16.3403H9.03868C13.1433 16.3403 16.4871 13.0166 16.4871 8.92728C16.4871 6.94677 15.7135 5.08603 14.308 3.68299C12.9026 2.27994 11.0286 1.50998 9.03868 1.50998C4.93409 1.5057 1.59026 4.82937 1.59026 8.91873C1.59026 10.3175 1.98137 11.682 2.72922 12.8626L2.90544 13.145L2.15329 15.8783L4.97278 15.1426Z" fill="#697890"/>
<path d="M0 18L1.27221 13.3802C0.485673 12.0242 0.0730658 10.4886 0.0773638 8.91873C0.0773638 3.99953 4.10028 0 9.03868 0C11.437 0 13.6891 0.928232 15.3782 2.61359C17.0716 4.29896 18.0043 6.5404 18 8.92301C18 13.8422 13.9771 17.8417 9.03438 17.8417H9.03008C7.53008 17.8417 6.05587 17.4653 4.74498 16.7552L0 18ZM4.97278 15.1426L5.24355 15.3051C6.38681 15.981 7.6977 16.336 9.03438 16.3403H9.03868C13.1433 16.3403 16.4871 13.0166 16.4871 8.92728C16.4871 6.94677 15.7135 5.08603 14.308 3.68299C12.9026 2.27994 11.0286 1.50998 9.03868 1.50998C4.93409 1.5057 1.59026 4.82937 1.59026 8.91873C1.59026 10.3175 1.98137 11.682 2.72922 12.8626L2.90544 13.145L2.15329 15.8783L4.97278 15.1426Z" fill="#697890"/>
<path d="M2.45 13.45L2 17.05L6.05 16.15L2.45 13V13.45Z" fill="#697890"/>
<circle cx="9.1" cy="9.1" r="8.1" fill="#697890"/>
<path fill-rule="evenodd" clip-rule="evenodd" d="M6.79914 5.18906C6.63151 4.81692 6.4553 4.80836 6.29627 4.80408C6.16733 4.7998 6.0169 4.7998 5.86647 4.7998C5.71604 4.7998 5.47535 4.85541 5.26905 5.07785C5.06275 5.30028 4.48682 5.83925 4.48682 6.93859C4.48682 8.03365 5.29054 9.09448 5.40229 9.2442C5.51404 9.39391 6.95386 11.7166 9.2275 12.6106C11.1186 13.3549 11.5054 13.2052 11.9137 13.1667C12.3221 13.1282 13.2375 12.6278 13.4266 12.1059C13.6114 11.584 13.6114 11.1392 13.5556 11.0451C13.4997 10.9509 13.3493 10.8953 13.1258 10.7841C12.9023 10.6729 11.802 10.1339 11.5957 10.0569C11.3894 9.98422 11.239 9.94572 11.0928 10.1682C10.9424 10.3906 10.5126 10.8911 10.3837 11.0408C10.2547 11.1905 10.1215 11.2076 9.89799 11.0964C9.67449 10.9852 8.95243 10.7499 8.09713 9.98849C7.43094 9.39819 6.97965 8.66673 6.85071 8.44429C6.72177 8.22186 6.83782 8.10209 6.94956 7.99087C7.04842 7.89249 7.17306 7.72994 7.28481 7.60161C7.39656 7.47328 7.43524 7.37918 7.5083 7.22946C7.58137 7.07975 7.54699 6.95142 7.49111 6.8402C7.43524 6.73326 6.99684 5.62965 6.79914 5.18906Z" fill="#E2E5E8"/>
</svg>
