<svg width="55" height="30" viewBox="0 0 55 30" fill="none" xmlns="http://www.w3.org/2000/svg">
<rect width="55" height="30" rx="15" fill="#0E254B" fill-opacity="0.05"/>
<path d="M19 24L20.2722 19.3802C19.4857 18.0242 19.0731 16.4886 19.0774 14.9187C19.0774 9.99953 23.1003 6 28.0387 6C30.437 6 32.6891 6.92823 34.3782 8.61359C36.0716 10.299 37.0043 12.5404 37 14.923C37 19.8422 32.9771 23.8417 28.0344 23.8417H28.0301C26.5301 23.8417 25.0559 23.4653 23.745 22.7552L19 24ZM23.9728 21.1426L24.2435 21.3051C25.3868 21.981 26.6977 22.336 28.0344 22.3403H28.0387C32.1433 22.3403 35.4871 19.0166 35.4871 14.9273C35.4871 12.9468 34.7135 11.086 33.308 9.68299C31.9026 8.27994 30.0286 7.50998 28.0387 7.50998C23.9341 7.5057 20.5903 10.8294 20.5903 14.9187C20.5903 16.3175 20.9814 17.682 21.7292 18.8626L21.9054 19.145L21.1533 21.8783L23.9728 21.1426Z" fill="#697890"/>
<path d="M19 24L20.2722 19.3802C19.4857 18.0242 19.0731 16.4886 19.0774 14.9187C19.0774 9.99953 23.1003 6 28.0387 6C30.437 6 32.6891 6.92823 34.3782 8.61359C36.0716 10.299 37.0043 12.5404 37 14.923C37 19.8422 32.9771 23.8417 28.0344 23.8417H28.0301C26.5301 23.8417 25.0559 23.4653 23.745 22.7552L19 24ZM23.9728 21.1426L24.2435 21.3051C25.3868 21.981 26.6977 22.336 28.0344 22.3403H28.0387C32.1433 22.3403 35.4871 19.0166 35.4871 14.9273C35.4871 12.9468 34.7135 11.086 33.308 9.68299C31.9026 8.27994 30.0286 7.50998 28.0387 7.50998C23.9341 7.5057 20.5903 10.8294 20.5903 14.9187C20.5903 16.3175 20.9814 17.682 21.7292 18.8626L21.9054 19.145L21.1533 21.8783L23.9728 21.1426Z" fill="#697890"/>
<path d="M21.45 19.45L21 23.05L25.05 22.15L21.45 19V19.45Z" fill="#697890"/>
<circle cx="28.1" cy="15.1" r="8.1" fill="#697890"/>
<path fill-rule="evenodd" clip-rule="evenodd" d="M25.7991 11.1891C25.6315 10.8169 25.4553 10.8084 25.2963 10.8041C25.1673 10.7998 25.0169 10.7998 24.8665 10.7998C24.716 10.7998 24.4754 10.8554 24.2691 11.0778C24.0627 11.3003 23.4868 11.8393 23.4868 12.9386C23.4868 14.0336 24.2905 15.0945 24.4023 15.2442C24.514 15.3939 25.9539 17.7166 28.2275 18.6106C30.1186 19.3549 30.5054 19.2052 30.9137 19.1667C31.3221 19.1282 32.2375 18.6278 32.4266 18.1059C32.6115 17.584 32.6115 17.1392 32.5556 17.0451C32.4997 16.9509 32.3493 16.8953 32.1258 16.7841C31.9023 16.6729 30.802 16.1339 30.5957 16.0569C30.3894 15.9842 30.239 15.9457 30.0928 16.1682C29.9424 16.3906 29.5126 16.8911 29.3837 17.0408C29.2547 17.1905 29.1215 17.2076 28.898 17.0964C28.6745 16.9852 27.9524 16.7499 27.0971 15.9885C26.4309 15.3982 25.9797 14.6667 25.8507 14.4443C25.7218 14.2219 25.8378 14.1021 25.9496 13.9909C26.0484 13.8925 26.1731 13.7299 26.2848 13.6016C26.3966 13.4733 26.4352 13.3792 26.5083 13.2295C26.5814 13.0797 26.547 12.9514 26.4911 12.8402C26.4352 12.7333 25.9968 11.6297 25.7991 11.1891Z" fill="#E2E5E8"/>
</svg>
